<?xml version="1.0" standalone="yes"?>
<svg xmlns="http://www.w3.org/2000/svg" width="211" height="306">
<path style="fill:#010101; stroke:none;" d="M0 0L0 306L211 306L211 0L0 0z"/>
<path style="fill:#f7f7f7; stroke:none;" d="M6 293L7 293L7 8L58 8C47.7343 3.69235 30.1581 7 19 7C15.6673 7 8.41569 5.63486 6.60339 9.3179C3.7635 15.0893 6 26.6187 6 33L6 90L6 293M75 15L74 15L74 115L138 115L138 8L188 8C182.049 5.50284 173.42 7 167 7C160.589 7 143.71 3.98334 138.603 8.02777C134.348 11.3983 137 27.902 137 33L137 90C137 95.7127 139.1 106.768 135.821 111.682C133.318 115.434 125.855 114 122 114L88 114C84.0548 113.998 78.4413 114.719 76.0278 110.772C72.3557 104.766 75 90.9205 75 84L75 15z"/>
<path style="fill:#bababa; stroke:none;" d="M7 8L8 9L7 8z"/>
<path style="fill:#8d8d8d; stroke:none;" d="M8 8L8 9L59 9C45.8727 3.49158 22.3108 8 8 8z"/>
<path style="fill:#f7f7f7; stroke:none;" d="M59 8L59 15L70 15L70 14C64.209 13.9476 61.7786 13.095 59 8z"/>
<path style="fill:#8d8d8d; stroke:none;" d="M138 8L138 9L189 9C189.294 17.965 196.976 16 204 16L204 15L190 15C189.728 6.70306 183.761 8 177 8L138 8z"/>
<path style="fill:#bababa; stroke:none;" d="M189 8L190 9L189 8z"/>
<path style="fill:#545454; stroke:none;" d="M7 9L7 294L8 294L8 93L8 35L7 9z"/>
<path style="fill:#010101; stroke:none;" d="M8 9L8 294L23 294L23 301L74 301L74 181L138 181L138 294L153 294L153 301L204 301L204 16L189 16L189 9L138 9L138 116L74 116L74 16L59 16L59 9L8 9z"/>
<path style="fill:#8d8d8d; stroke:none;" d="M9 10L10 11L9 10z"/>
<path style="fill:#bababa; stroke:none;" d="M10 10L10 11L57 11C44.8233 5.8905 23.265 10 10 10z"/>
<path style="fill:#545454; stroke:none;" d="M139 10L139 116L140 116L140 42L139 10z"/>
<path style="fill:#bababa; stroke:none;" d="M140 10L140 11L187 11L187 15C188.97 8.98929 180.859 10.0002 177 10L140 10z"/>
<path style="fill:#8d8d8d; stroke:none;" d="M187 10L188 11L187 10z"/>
<path style="fill:#f7f7f7; stroke:none;" d="M190 10L190 15L204 15L204 14C198.321 14 194.063 14.4347 190 10M9 11L9 24L11 24L11 12L22 13C16.5615 35.8429 21 64.509 21 88L21 219C21 242.724 22.974 267.468 20 291L9 291L9 292L22 292L22 15L57 15L54 11L55 14L24 13L24 12L32 12L9 11z"/>
<path style="fill:#010101; stroke:none;" d="M24 12L24 13L55 14C50.3941 6.89548 31.4336 11.9385 24 12z"/>
<path style="fill:#545454; stroke:none;" d="M57 11L58 12L57 11z"/>
<path style="fill:#f7f7f7; stroke:none;" d="M140 11L140 35L141 35L143 11L140 11z"/>
<path style="fill:#010101; stroke:none;" d="M154 12C150.644 11.7351 145.341 9.88699 142.603 12.6042C138.959 16.221 141.234 26.2717 140.91 31C139.647 49.4457 140.534 67.5771 140.985 86C141.13 91.9032 137.736 111.738 145.108 113.677C155.435 116.395 152 96.7849 152 91L152 40C152 30.7253 150.785 20.8208 154 12z"/>
<path style="fill:#f7f7f7; stroke:none;" d="M149 11L149 12L154 12C150.343 19.5983 152 29.7179 152 38L152 87C152 94.0282 153.547 103.15 151.682 109.941C150.055 115.866 142.863 113.982 141.434 108.981C138.998 100.46 141 88.8485 141 80L140 80L140 115L153 115L153 15L187 15L187 11L186 11L186 14L155 13L156 11L149 11z"/>
<path style="fill:#010101; stroke:none;" d="M155 12L155 13L186 14L186 11L155 12M11 12L10 291L20 291C24.2938 267.871 21 241.517 21 218L21 75C21 54.952 18.3379 32.7257 22 13L11 12z"/>
<path style="fill:#bababa; stroke:none;" d="M9 13L9 20L10 20L9 13M22 15L23 16L22 15z"/>
<path style="fill:#8d8d8d; stroke:none;" d="M23 15L23 16L57 16L23 15M59 15L59 16L74 16L59 15M153 15L153 16L187 16L153 15z"/>
<path style="fill:#545454; stroke:none;" d="M187 15L188 16L187 15M189 15L190 16L189 15z"/>
<path style="fill:#bababa; stroke:none;" d="M204 15L205 16L204 15z"/>
<path style="fill:#545454; stroke:none;" d="M22 16L22 292L23 292L23 97L23 41L22 16M204 16L204 301L205 301L205 100L205 42L204 16z"/>
<path style="fill:#f7f7f7; stroke:none;" d="M205 16L205 290L206 290L206 97L206 41L205 16z"/>
<path style="fill:#8d8d8d; stroke:none;" d="M24 17L25 18L24 17z"/>
<path style="fill:#bababa; stroke:none;" d="M24 20L25 20C31.8217 14.8319 48.5652 18 57 18C51.0496 15.5031 27.6348 14.3934 24 20M59 17L59 18L72 18L59 17z"/>
<path style="fill:#545454; stroke:none;" d="M154 17L154 220L154 272L155.028 291.397L164 293L188 293L188 292L155 292L155 98L155 42L154 17z"/>
<path style="fill:#bababa; stroke:none;" d="M155 17L155 18L187 18L187 292L188 272L188 231L188 86L188 39L187.397 19.3179L179 17L155 17z"/>
<path style="fill:#8d8d8d; stroke:none;" d="M187 17L188 18L187 17z"/>
<path style="fill:#545454; stroke:none;" d="M189 17L190 18L189 17z"/>
<path style="fill:#bababa; stroke:none;" d="M190 17L190 18L202 18L202 299L203 278L203 234L203 80L203 35L201.972 18.6034L190 17z"/>
<path style="fill:#8d8d8d; stroke:none;" d="M202 17L203 18L202 17z"/>
<path style="fill:#f7f7f7; stroke:none;" d="M25 102L26 102L26 19L48 19C44.1171 17.3707 28.0759 15.8466 25.2593 19.6034C21.5498 24.551 24.597 35.3407 24.6644 41C24.8954 60.4208 21.4737 83.0055 25 102M55 18L56 22L57 22L55 18M59 18L59 115L72 115L72 63L71 63L70 114C57.4864 113.852 60 102.498 60 93L60 44C60 35.4955 58.6287 25.9563 62 18L59 18M70 18L72 20L72 18L70 18M155 18L155 292L159 292L159 291L156 291L156 83L156 35C156 28.2243 154.239 19.6768 163 19L155 18z"/>
<path style="fill:#010101; stroke:none;" d="M156 291C161.155 291.954 183.751 295.058 186.397 289.682C189.281 283.819 186.167 274.214 186.015 268C185.574 250.023 186 231.983 186 214L186 19C180.218 18.2692 160.062 14.763 156.742 21.3171C154.013 26.705 156 37.05 156 43L156 97L156 291z"/>
<path style="fill:#f7f7f7; stroke:none;" d="M170 18L171 19L170 18M182 18L182 19L186 19L186 274L187 274L187 18L182 18z"/>
<path style="fill:#8d8d8d; stroke:none;" d="M189 18L189 294L190 294L190 99L190 43L189 18z"/>
<path style="fill:#f7f7f7; stroke:none;" d="M190 18L190 294L155 294C155.064 296.993 154.946 298.346 158 299L158 298L156 297C163.937 294.523 171.747 295.001 180 295C182.803 295 187.975 295.918 189.972 293.397C192.895 289.706 191 279.513 191 275L191 225L191 81C191 62.6975 185.838 34.903 193 18L190 18z"/>
<path style="fill:#010101; stroke:none;" d="M156 297C163.863 302.372 181.632 299.004 191 299C194.065 298.999 199.698 299.914 201.397 296.566C203.504 292.413 202 284.576 202 280C202 265.64 201.006 251.294 201 237L201 82C201 66.0124 203.393 48.7857 201.718 33C201.154 27.6847 203.907 17.271 195.055 18.7678C188.53 19.8709 191 33.1807 191 38L191 102L191 245L191 280C191 283.694 192.272 290.521 189.397 293.397C183.309 299.484 164.378 293.45 156 297z"/>
<path style="fill:#f7f7f7; stroke:none;" d="M194 18L194 19L198 19L194 18M199 18L199 19L201 21L202 21L199 18z"/>
<path style="fill:#545454; stroke:none;" d="M72 19L73 20L72 19z"/>
<path style="fill:#bababa; stroke:none;" d="M24.3333 21.6667L24.6667 22.3333L24.3333 21.6667z"/>
<path style="fill:#545454; stroke:none;" d="M57 22L58 23L57 22z"/>
<path style="fill:#bababa; stroke:none;" d="M9 24L9 32L10 32L9 24z"/>
<path style="fill:#f7f7f7; stroke:none;" d="M56 24L56 106L57 106L57 49L56 24M201 26L201 32L202 32L201 26M71 27L71 37L72 37L71 27M9 32L9 36L10 36L9 32z"/>
<path style="fill:#545454; stroke:none;" d="M57 32L58 33L57 32z"/>
<path style="fill:#bababa; stroke:none;" d="M9 36L9 56L10 56L9 36M24 38L24 44L25 44L24 38z"/>
<path style="fill:#545454; stroke:none;" d="M72 38L72 45L73 45L72 38z"/>
<path style="fill:#f7f7f7; stroke:none;" d="M201 46L201 247L202 247L202 106L202 65L201 46z"/>
<path style="fill:#bababa; stroke:none;" d="M24 47L24 60L25 60L24 47z"/>
<path style="fill:#545454; stroke:none;" d="M57 50L57 66L58 66L57 50M72 52L72 55L73 55L72 52z"/>
<path style="fill:#f7f7f7; stroke:none;" d="M9 56L9 127L10 127L11 76L9 56z"/>
<path style="fill:#bababa; stroke:none;" d="M24 64L24 90L25 90L24 64z"/>
<path style="fill:#545454; stroke:none;" d="M57 70L57 102L58 102L57 70z"/>
<path style="fill:#bababa; stroke:none;" d="M9 75L9 87L10 87L9 75M24 99L24 141L25 141C25 129.043 28.6107 109.988 24 99z"/>
<path style="fill:#f7f7f7; stroke:none;" d="M56 109L42.6034 117.148L42 132L41.9606 165L42.3179 180.552L57 184C55.9363 179.036 47.2054 181 43 181L44 115L57 115L56 109z"/>
<path style="fill:#545454; stroke:none;" d="M72 111L73 112L72 111z"/>
<path style="fill:#8d8d8d; stroke:none;" d="M44 115L44 116L57 116L44 115M59 115L59 116L72 116L59 115M74 115L74 116L138 116L118 115L74 115M140 115L140 116L153 116L140 115z"/>
<path style="fill:#545454; stroke:none;" d="M45 117L45 129L46 129L45 117z"/>
<path style="fill:#bababa; stroke:none;" d="M46 117L46 118L57 118L46 117M59 117L59 118L72 118L59 117M74 117L74 118L138 118L118 117L74 117z"/>
<path style="fill:#545454; stroke:none;" d="M139 117L139 130L140 130L139 117z"/>
<path style="fill:#bababa; stroke:none;" d="M140 117L140 118L151 118L151 129C155.275 118.812 148.409 117 140 117z"/>
<path style="fill:#8d8d8d; stroke:none;" d="M151 117L152 118L151 117z"/>
<path style="fill:#f7f7f7; stroke:none;" d="M46 118L46 129L57 129L57 124L56 124C51.3598 131.558 47.0724 125.127 47 119L56 121C57.6595 116.598 48.7256 118 46 118M59 118L59 129L63 129L63 128C59.9723 125.032 59.1144 121.522 63 119L59 118M70 118L72 121L72 118L70 118M74 118L74 129L138 129L138 118L117 118L117 119C121.9 119 129.311 117.609 133.851 119.603C136.829 120.911 137.458 125.082 134.566 126.934C131.643 128.804 124.455 127.956 121 127.996C109.501 128.128 88.6643 131.986 78.1481 127.397C74.7677 125.921 75.0367 122.105 75 119L80 119L74 118z"/>
<path style="fill:#010101; stroke:none;" d="M75 119C75.0096 121.709 74.3755 125.949 77.3179 127.397C80.6749 129.048 86.3477 128 90 128L121 127.999C124.546 127.988 132.376 129.273 135.258 126.969C143.538 120.349 128.095 119.014 125 118.999C121.602 118.983 118.368 118.49 115 118.17C109.825 117.677 104.162 117.676 99 118.285C90.957 119.234 83.0441 118.432 75 119z"/>
<path style="fill:#f7f7f7; stroke:none;" d="M82 118L82 119L98 119L82 118M140 118L140 129L151 129L151 123L150 123L150 128C143.682 127.795 141.205 125.318 141 119L146 119L140 118z"/>
<path style="fill:#010101; stroke:none;" d="M141 119C141.081 125.833 143.167 127.919 150 128C150.456 120.084 148.878 118.449 141 119z"/>
<path style="fill:#f7f7f7; stroke:none;" d="M148 118L148 119L150 122L151 122L151 118L148 118M71 125L66 128L66 129L72 129L71 125z"/>
<path style="fill:#bababa; stroke:none;" d="M9 127L9 245L10 245L10 163L9 127z"/>
<path style="fill:#8d8d8d; stroke:none;" d="M43 129L44 130L43 129M46 129L46 130L57 130L46 129M59 129L59 130L72 130L59 129M74 129L74 130L138 130L118 129L74 129M140 129L140 130L152 130L140 129z"/>
<path style="fill:#545454; stroke:none;" d="M45 131L45 156L46.6034 164.972L57 166L57 165L46 165L45 131z"/>
<path style="fill:#bababa; stroke:none;" d="M46 131L46 132L57 132L46 131M59 131L59 132L72 132L59 131M74 131L74 132L138 132L118 131L74 131z"/>
<path style="fill:#545454; stroke:none;" d="M139 131L139 156L140.603 164.972L151 166L151 165L140 165L139 131z"/>
<path style="fill:#bababa; stroke:none;" d="M140 131L140 132L150 132L150 165C152.211 159.732 153.645 137.241 149.972 132.603C147.977 130.085 142.819 131 140 131z"/>
<path style="fill:#8d8d8d; stroke:none;" d="M150 131L151 132L150 131z"/>
<path style="fill:#f7f7f7; stroke:none;" d="M46 132L46 165C49.8838 165 56.0184 166.581 57 162C42.1677 168.151 47 141.785 47 133L51 133L46 132M55 132L57 134L57 132L55 132M59 132L59 165L72 165L72 161C55.698 169.955 58.7212 141.571 61 132L59 132M70 132L71 135L72 135L72 132L70 132M74 132L74 165L138 165L138 132L81 132L81 133L137 133C137 139.489 140.018 156.534 135.258 161.397C132.577 164.135 126.462 163 123 163C112.003 163 100.997 162.873 90 163.004C86.159 163.05 79.7132 165.277 76.6034 162.257C72.5072 158.278 73.5086 135.912 78 133L74 132z"/>
<path style="fill:#010101; stroke:none;" d="M75 133C75 139.54 71.8675 157.119 76.0278 162.258C78.7364 165.603 85.4436 163.195 89 163.039C100.622 162.53 112.366 163 124 163C127.141 163 133.594 164.208 135.821 161.397C140.006 156.113 137 139.6 137 133L75 133z"/>
<path style="fill:#f7f7f7; stroke:none;" d="M140 132L140 165L150 165L150 160L149 160L149 163C136.77 162.07 136.454 133.16 150 133L140 132z"/>
<path style="fill:#010101; stroke:none;" d="M149 163L150 133C147.576 133.009 143.743 132.435 142.028 134.603C136.708 141.328 139.562 162.691 149 163z"/>
<path style="fill:#545454; stroke:none;" d="M57 138L58 139L57 138M72 140L72 144L73 144L72 140z"/>
<path style="fill:#f7f7f7; stroke:none;" d="M24 141L24 190L25 190C25 176.212 29.309 153.652 24 141z"/>
<path style="fill:#545454; stroke:none;" d="M57.3333 141.667L57.6667 142.333L57.3333 141.667M72 163L73 164L72 163M59 165L59 166L72 166L59 165M74 165L74 166L138 166L118 165L74 165M44 167C44 178.476 45.5239 180 57 180L57 179L45 179L44 167z"/>
<path style="fill:#f7f7f7; stroke:none;" d="M45 167L45 179L57 179L57 173L56 173C52.6686 182.061 46.0837 176.081 46 169C50.0191 168.793 53.6541 168.349 56 172L57 172L57 167L45 167M59 167L59 179L72 179L72 167L59 167M74 167L74 179L138 179L138 167L74 167z"/>
<path style="fill:#545454; stroke:none;" d="M139 167C139 177.785 139.91 180 151 180L151 179L140 179L139 167z"/>
<path style="fill:#f7f7f7; stroke:none;" d="M140 167L140 179L150 179L150 173L149 173L149 177C143.236 176.811 141.315 174.739 141 169L150 169L150 167L140 167z"/>
<path style="fill:#bababa; stroke:none;" d="M150 167L150 179L151 179L150 167z"/>
<path style="fill:#8d8d8d; stroke:none;" d="M152 167L152 181L153 181L152 167z"/>
<path style="fill:#010101; stroke:none;" d="M60 169C60.019 170.608 59.8723 172.396 60.3179 173.966C63.6994 185.877 78.042 168.1 65.0201 168.228C63.3488 168.244 61.6334 168.698 60 169M137 169L113 169L96 169C91.0973 169 81.6407 166.695 77.3179 168.757C74.3225 170.186 74.2363 175.828 77.3179 177.218C80.4208 178.619 85.6377 177.017 89 177.001C99.2381 176.951 109.797 176.3 120 177.166C123.973 177.503 130.864 179.219 134.566 177.393C137.483 175.954 136.976 171.69 137 169z"/>
<path style="fill:#545454; stroke:none;" d="M57 169L58 170L57 169z"/>
<path style="fill:#010101; stroke:none;" d="M141 169C141.151 175.205 142.81 176.926 149 177L150 169L141 169z"/>
<path style="fill:#545454; stroke:none;" d="M72.3333 176.667L72.6667 177.333L72.3333 176.667M59 179L59 180L72 180L59 179M74 179L74 180L138 180L118 179L74 179z"/>
<path style="fill:#f7f7f7; stroke:none;" d="M59 181L59 294L25 294L25 295L50 295C52.6168 294.999 57.1087 295.75 58.9722 293.397C62.3495 289.133 60 276.278 60 271L60 208C60 198.064 55.9636 177.215 72 184C70.9601 179.147 63.1018 181 59 181M74 181L74 301L75 301L75 182C89.6474 182.04 104.274 183.346 119 182.985C123.618 182.872 131.59 180.016 135.397 183.742C140.008 188.257 137 205.819 137 212L137 294L138 294L138 181L74 181z"/>
<path style="fill:#545454; stroke:none;" d="M139 181L139 259C139 267.344 135.914 283.184 139.603 290.682C141.486 294.508 149.496 293 153 293L153 292L140 292L140 215L139 181z"/>
<path style="fill:#f7f7f7; stroke:none;" d="M140 181L140 205L141 205L141 183L152 183L152 292L153 292L153 181L140 181z"/>
<path style="fill:#545454; stroke:none;" d="M57.3333 182.667L57.6667 183.333L57.3333 182.667M72 182L73 183L72 182z"/>
<path style="fill:#010101; stroke:none;" d="M141 183C141 209.98 140 236.962 140 264C140 269.38 137.154 287.448 141.603 290.972C144.051 292.911 149.073 292 152 292L152 183L141 183z"/>
<path style="fill:#545454; stroke:none;" d="M72.3333 189.667L72.6667 190.333L72.3333 189.667z"/>
<path style="fill:#bababa; stroke:none;" d="M24 190L24 205L25 205L24 190z"/>
<path style="fill:#545454; stroke:none;" d="M57 193L58 194L57 193z"/>
<path style="fill:#f7f7f7; stroke:none;" d="M56 194L56 276L57 276L57 219L56 194M71 199L71 225L72 225L71 199M25 204L24.9213 221L25 253L26 253C26 239.212 30.309 216.652 25 204z"/>
<path style="fill:#bababa; stroke:none;" d="M24 216L24 226L25 226L24 216z"/>
<path style="fill:#545454; stroke:none;" d="M57 243L57 261L58 261L57 243z"/>
<path style="fill:#f7f7f7; stroke:none;" d="M9 245L9 286L10 286C10 274.304 13.5108 255.75 9 245z"/>
<path style="fill:#bababa; stroke:none;" d="M24 249L24 275L25 275L24 249z"/>
<path style="fill:#f7f7f7; stroke:none;" d="M24 275L24 284L25 284L24 275z"/>
<path style="fill:#545454; stroke:none;" d="M72 283L72 289L73 289L72 283z"/>
<path style="fill:#bababa; stroke:none;" d="M24 284L24 288L25 288L24 284M9 286L9 291L10 291L9 286z"/>
<path style="fill:#f7f7f7; stroke:none;" d="M24 288L24 292L51 292L51 291C43.2088 291 29.9713 293.7 24 288M52 291L53 292L52 291M54 291L54 292L57 292L54 291z"/>
<path style="fill:#545454; stroke:none;" d="M72.3333 291.667L72.6667 292.333L72.3333 291.667z"/>
<path style="fill:#f7f7f7; stroke:none;" d="M140 291L141 292L140 291M165 291L165 292L169 292L165 291M186 291L187 292L186 291z"/>
<path style="fill:#545454; stroke:none;" d="M9 292L9 293L22 293L9 292M24 292L24 293L57 293L24 292z"/>
<path style="fill:#f7f7f7; stroke:none;" d="M7 294L7 295C12.7289 295 18.6883 293.713 21 300L22 300L22 294L7 294z"/>
<path style="fill:#545454; stroke:none;" d="M22 294L22 301L23 301L22 294z"/>
<path style="fill:#bababa; stroke:none;" d="M24 294L24 299L25 299L24 294z"/>
<path style="fill:#f7f7f7; stroke:none;" d="M138 294L138 295L152 295L152 301L153 301L153 294L138 294z"/>
<path style="fill:#545454; stroke:none;" d="M154 294L154 299L155 299L154 294z"/>
<path style="fill:#f7f7f7; stroke:none;" d="M71 297L69 298L69 299L71 297M25 298L26 299L25 298M34 298L34 299L67 299L34 298M200.667 298.333L201.333 298.667L200.667 298.333z"/>
<path style="fill:#545454; stroke:none;" d="M24 299L24 300L72 300C59.5857 294.791 37.5264 299 24 299M155 299L155 300L203 300C190.586 294.791 168.526 299 155 299z"/>
<path style="fill:#f7f7f7; stroke:none;" d="M22 301L22 302L74 302L57 301L22 301M153 301L153 302L205 302L188 301L153 301z"/>
</svg>
