<svg id="svg" version="1.1" xmlns="http://www.w3.org/2000/svg" xmlns:xlink="http://www.w3.org/1999/xlink" width="400" height="580.0947867298578" viewBox="0, 0, 400,580.0947867298578"><g id="svgg"><path id="path0" d="M14.800 13.781 C 14.250 14.089,13.485 14.439,13.100 14.558 C 12.606 14.711,12.400 15.191,12.400 16.187 C 12.400 17.793,13.297 18.079,14.946 16.998 C 15.753 16.470,21.739 16.409,64.232 16.498 L 112.600 16.600 112.600 23.095 L 112.600 29.591 126.800 29.695 L 141.000 29.800 141.000 124.500 L 141.000 219.200 201.000 219.200 L 261.000 219.200 260.898 117.800 L 260.795 16.400 309.518 16.400 C 346.879 16.400,358.352 16.512,358.720 16.880 C 359.045 17.205,359.200 19.066,359.200 22.637 C 359.200 26.959,359.309 27.956,359.800 28.145 C 360.130 28.271,360.400 28.651,360.400 28.987 C 360.400 29.525,361.978 29.600,373.253 29.600 C 385.287 29.600,386.186 29.650,387.365 30.378 C 388.964 31.367,389.701 30.951,389.530 29.158 L 389.400 27.800 377.225 27.694 C 363.362 27.573,364.331 27.820,362.356 23.911 C 361.336 21.891,361.200 21.199,361.200 18.011 L 361.200 14.400 322.300 14.387 C 288.730 14.376,283.294 14.294,282.624 13.787 C 281.482 12.924,264.518 12.924,263.376 13.787 C 262.949 14.110,262.215 14.380,261.744 14.387 C 261.274 14.394,260.507 14.715,260.041 15.100 L 259.193 15.800 259.097 114.400 C 258.988 224.825,259.285 214.527,256.164 216.369 C 254.755 217.199,254.715 217.200,200.977 217.200 L 147.200 217.200 147.200 216.200 C 147.200 215.369,147.009 215.200,146.070 215.200 C 145.405 215.200,144.581 214.818,144.070 214.274 L 143.200 213.348 143.190 122.574 C 143.185 70.356,143.028 31.142,142.822 30.251 C 142.237 27.730,142.661 27.810,129.181 27.684 L 116.800 27.567 116.800 26.584 C 116.800 25.814,116.593 25.600,115.847 25.600 C 114.604 25.600,114.412 24.817,114.405 19.723 C 114.398 13.816,117.498 14.402,86.211 14.387 C 63.622 14.376,59.688 14.290,59.024 13.787 C 57.893 12.932,16.327 12.926,14.800 13.781 M11.590 19.426 C 11.067 20.801,11.117 21.606,11.800 22.800 C 12.338 23.742,12.372 23.643,12.386 21.100 C 12.401 18.204,12.209 17.799,11.590 19.426 M17.700 286.224 L 17.800 552.848 29.378 552.812 C 35.746 552.793,40.970 552.737,40.988 552.688 C 41.511 551.210,40.597 546.800,39.767 546.800 C 38.872 546.800,38.800 546.950,38.800 548.820 C 38.800 551.991,37.591 552.380,27.700 552.391 L 20.000 552.400 20.000 288.182 L 20.000 23.964 21.000 22.964 L 21.999 21.964 28.900 22.129 C 36.109 22.302,39.695 22.735,40.490 23.530 C 40.748 23.788,41.374 24.000,41.880 24.000 C 42.956 24.000,43.150 25.211,42.200 26.000 C 41.870 26.274,41.600 26.701,41.600 26.949 C 41.599 27.197,41.158 27.913,40.618 28.541 C 39.275 30.102,39.028 32.300,39.401 39.382 C 39.575 42.692,39.754 75.563,39.799 112.429 C 39.858 161.008,40.004 179.670,40.328 180.229 C 40.849 181.126,40.972 164.858,41.050 85.200 C 41.078 56.930,41.126 33.260,41.157 32.600 C 41.203 31.602,41.514 31.248,43.002 30.500 L 44.791 29.600 76.096 29.600 L 107.400 29.599 107.400 24.600 L 107.400 19.600 62.500 19.600 L 17.599 19.600 17.700 286.224 M265.892 19.841 C 265.760 19.974,265.820 20.525,266.026 21.067 C 266.231 21.609,266.400 22.882,266.400 23.896 L 266.400 25.739 267.400 24.800 C 267.950 24.283,268.400 23.465,268.400 22.983 C 268.400 21.537,271.701 21.326,285.900 21.864 L 292.800 22.126 292.800 23.863 C 292.800 25.449,292.713 25.600,291.800 25.600 C 291.250 25.600,290.800 25.779,290.800 25.999 C 290.800 26.218,290.125 27.145,289.300 28.058 L 287.800 29.718 287.697 122.173 L 287.595 214.627 286.420 215.914 L 285.245 217.200 280.523 217.187 C 277.005 217.178,275.602 217.025,275.024 216.587 C 274.596 216.264,273.730 216.000,273.097 216.000 C 271.116 216.000,268.441 213.884,268.413 212.295 C 268.406 211.907,268.220 211.277,268.000 210.895 C 267.780 210.513,267.384 209.660,267.120 209.000 C 266.684 207.910,266.618 208.168,266.400 211.808 C 266.268 214.013,266.035 216.020,265.882 216.267 C 265.729 216.515,265.715 217.276,265.852 217.959 L 266.100 219.200 277.750 219.200 L 289.400 219.200 289.400 124.500 L 289.400 29.800 322.315 29.600 C 350.990 29.426,355.278 29.323,355.609 28.800 C 356.025 28.140,356.145 21.244,355.757 20.233 C 355.510 19.589,266.532 19.201,265.892 19.841 M103.700 21.857 C 105.574 22.166,105.939 24.962,104.330 26.674 C 103.300 27.771,93.228 28.104,91.474 27.100 C 90.834 26.734,86.096 26.530,73.800 26.341 C 64.174 26.192,55.804 25.881,54.200 25.614 C 52.660 25.356,49.915 25.055,48.100 24.944 C 44.134 24.700,43.559 23.656,46.800 22.585 C 48.996 21.860,99.785 21.210,103.700 21.857 M353.600 22.620 C 353.600 25.173,350.706 28.012,349.031 27.104 C 346.284 25.613,340.095 25.625,337.326 27.126 C 336.056 27.815,314.281 27.791,313.074 27.100 C 312.578 26.816,309.777 26.468,306.600 26.296 C 303.520 26.128,299.245 25.891,297.100 25.769 L 293.200 25.547 293.200 23.801 C 293.200 21.521,290.350 21.718,324.300 21.654 L 353.600 21.600 353.600 22.620 M11.664 30.619 C 11.033 32.004,11.103 34.781,11.800 36.000 C 12.327 36.922,12.373 36.711,12.386 33.300 C 12.401 29.274,12.355 29.102,11.664 30.619 M46.388 33.100 C 46.321 34.739,46.443 552.960,46.510 552.977 C 46.560 552.990,57.760 552.907,71.400 552.794 L 96.200 552.588 72.300 552.494 L 48.400 552.400 48.414 331.700 C 48.426 141.138,48.506 110.863,49.000 110.000 C 49.861 108.493,49.859 85.107,48.998 83.454 C 48.283 82.085,48.083 40.877,48.787 40.173 C 49.000 39.960,49.316 39.101,49.490 38.264 C 50.117 35.244,50.279 35.228,79.774 35.213 L 105.348 35.200 106.274 36.070 C 107.191 36.931,107.200 36.932,107.200 36.120 C 107.200 35.669,107.313 34.737,107.450 34.050 L 107.700 32.800 77.050 32.800 C 60.192 32.800,46.395 32.935,46.388 33.100 M112.798 32.900 C 112.797 32.955,112.752 74.895,112.698 126.100 L 112.600 219.200 124.347 219.200 L 136.093 219.200 135.852 218.300 C 135.719 217.805,135.608 215.195,135.605 212.500 L 135.600 207.600 134.600 207.600 C 133.632 207.600,133.600 207.687,133.600 210.292 C 133.600 212.150,133.329 213.638,132.726 215.092 L 131.853 217.200 125.370 217.200 L 118.887 217.200 116.743 215.100 L 114.600 213.000 114.477 127.400 C 114.409 80.320,114.470 40.315,114.612 38.500 L 114.872 35.200 124.310 35.200 C 133.267 35.200,133.793 35.242,134.619 36.018 L 135.490 36.836 135.718 35.136 C 135.843 34.201,135.857 33.293,135.749 33.118 C 135.580 32.844,112.803 32.628,112.798 32.900 M294.295 33.039 C 294.161 33.173,294.220 33.725,294.426 34.267 C 294.631 34.809,294.805 40.325,294.812 46.526 C 294.827 60.498,295.636 61.456,296.056 48.000 C 296.503 33.705,293.031 35.159,326.400 35.296 L 351.800 35.400 352.691 37.200 C 353.726 39.292,353.740 48.955,352.735 68.200 C 352.357 75.437,352.251 88.588,352.349 115.800 C 352.424 136.480,352.659 218.380,352.870 297.800 C 353.082 377.220,353.334 467.064,353.430 497.454 L 353.606 552.708 354.496 552.941 C 354.986 553.069,355.524 553.036,355.693 552.867 C 355.862 552.698,355.955 435.659,355.900 292.780 L 355.800 33.000 325.169 32.898 C 308.322 32.841,294.429 32.905,294.295 33.039 M359.827 33.683 C 359.259 34.493,359.200 59.326,359.200 296.271 L 359.200 557.964 357.900 558.197 C 357.185 558.325,342.695 558.379,325.700 558.315 L 294.800 558.200 294.800 560.100 L 294.800 562.000 296.800 562.000 C 298.489 562.000,298.800 561.883,298.800 561.250 C 298.800 560.038,299.753 560.000,330.450 560.000 C 362.791 560.000,361.200 560.132,361.200 557.446 C 361.200 556.921,361.469 555.976,361.798 555.346 C 362.538 553.926,362.539 552.893,361.800 551.600 C 360.923 550.067,360.936 228.583,361.813 227.424 C 362.325 226.747,362.400 216.100,362.401 144.424 C 362.402 46.035,362.513 38.002,363.901 36.353 L 364.871 35.200 373.436 35.200 L 382.000 35.200 382.000 300.400 L 382.000 565.600 380.900 565.653 C 380.285 565.683,380.682 565.836,381.800 566.000 C 382.900 566.161,383.935 566.173,384.100 566.026 C 384.265 565.879,384.355 445.889,384.300 299.380 L 384.200 33.000 372.327 32.894 L 360.454 32.788 359.827 33.683 M389.616 50.420 C 389.632 54.086,389.651 54.165,390.261 53.039 C 390.973 51.723,390.848 47.888,390.066 47.106 C 389.711 46.751,389.604 47.543,389.616 50.420 M294.816 150.820 C 294.830 222.582,294.901 232.072,295.419 231.119 C 296.229 229.626,296.112 70.752,295.300 69.940 C 294.900 69.540,294.803 85.716,294.816 150.820 M389.633 230.180 C 389.607 334.804,389.700 360.860,390.100 360.460 C 390.897 359.663,391.030 102.522,390.234 100.702 C 389.741 99.572,389.661 116.714,389.633 230.180 M11.664 138.619 C 10.910 140.274,11.039 195.868,11.800 197.200 C 12.299 198.074,12.373 194.370,12.386 167.900 C 12.394 151.235,12.339 137.600,12.264 137.600 C 12.190 137.600,11.920 138.058,11.664 138.619 M105.200 215.247 L 103.400 217.138 98.600 217.156 C 94.976 217.170,93.610 217.031,93.024 216.587 C 91.911 215.746,84.701 215.756,83.857 216.600 C 83.527 216.930,82.906 217.200,82.478 217.200 C 80.741 217.200,80.613 217.948,80.356 229.561 C 80.221 235.633,79.901 241.500,79.644 242.600 C 79.306 244.045,79.127 258.292,78.996 293.903 L 78.816 343.205 79.975 344.503 L 81.133 345.800 93.267 345.911 L 105.400 346.021 106.300 347.033 L 107.200 348.045 107.200 346.655 C 107.200 345.891,107.309 344.981,107.443 344.633 C 107.661 344.063,106.337 344.000,94.243 344.000 L 80.800 344.000 80.800 295.190 L 80.800 246.380 81.795 246.002 L 82.789 245.624 82.895 232.512 L 83.000 219.400 95.253 219.294 L 107.507 219.189 107.321 216.494 C 107.218 215.012,107.104 213.700,107.067 213.578 C 107.030 213.456,106.190 214.207,105.200 215.247 M87.891 234.100 L 87.981 245.800 97.463 245.907 C 102.678 245.966,107.065 245.876,107.212 245.707 C 108.011 244.786,107.114 239.600,106.155 239.600 C 105.276 239.600,105.200 239.759,105.200 241.600 L 105.200 243.600 99.675 243.600 C 93.656 243.600,91.898 243.130,89.500 240.882 L 88.400 239.850 88.400 233.195 C 88.400 224.236,87.771 224.800,97.762 224.800 C 105.067 224.800,105.292 224.825,106.001 225.700 C 106.902 226.810,107.028 226.682,107.373 224.300 L 107.649 222.400 97.725 222.400 L 87.800 222.400 87.891 234.100 M112.691 234.100 L 112.781 245.800 124.064 245.906 C 130.270 245.965,135.467 245.875,135.613 245.706 C 136.411 244.785,135.513 239.600,134.555 239.600 C 133.676 239.600,133.600 239.759,133.600 241.600 L 133.600 243.600 125.070 243.600 L 116.539 243.600 115.570 242.569 C 114.565 241.500,113.871 229.944,114.584 226.143 L 114.836 224.800 124.218 224.800 L 133.600 224.800 133.600 225.800 C 133.600 226.600,133.800 226.800,134.600 226.800 C 135.386 226.800,135.600 226.597,135.600 225.850 C 135.600 225.328,135.713 224.338,135.850 223.650 L 136.100 222.400 124.350 222.400 L 112.600 222.400 112.691 234.100 M141.091 234.100 L 141.181 245.800 201.000 245.800 L 260.819 245.800 260.909 234.100 L 261.000 222.400 201.000 222.400 L 141.000 222.400 141.091 234.100 M265.800 222.800 C 265.664 223.020,265.695 223.425,265.869 223.700 C 266.043 223.975,266.295 225.100,266.429 226.200 L 266.673 228.200 267.397 226.500 L 268.121 224.800 275.791 224.800 L 283.461 224.800 284.412 225.813 C 285.337 226.797,285.362 227.003,285.314 233.242 C 285.244 242.138,284.134 244.026,279.313 243.450 C 278.261 243.325,276.140 243.077,274.600 242.899 C 270.668 242.445,268.810 241.140,267.337 237.800 L 266.631 236.200 266.328 240.600 C 266.162 243.020,266.108 245.236,266.210 245.525 C 266.419 246.122,286.174 246.076,287.100 245.476 C 287.481 245.230,287.600 242.438,287.600 233.776 L 287.600 222.400 276.824 222.400 C 270.071 222.400,265.955 222.549,265.800 222.800 M258.030 225.832 C 259.401 227.291,259.522 238.361,258.196 241.000 L 257.392 242.600 252.196 242.589 C 248.549 242.581,246.610 242.405,245.691 241.998 C 244.545 241.490,244.273 241.491,243.491 242.009 C 242.063 242.956,230.824 243.234,186.030 243.429 L 145.060 243.607 144.130 242.734 C 143.213 241.873,143.200 241.740,143.200 233.330 L 143.200 224.800 200.130 224.800 L 257.061 224.800 258.030 225.832 M294.828 244.600 C 294.828 255.549,294.895 256.883,295.400 256.000 C 295.855 255.204,295.972 252.882,295.972 244.600 C 295.972 236.318,295.855 233.996,295.400 233.200 C 294.895 232.317,294.828 233.651,294.828 244.600 M87.928 249.092 C 87.858 249.262,87.849 263.485,87.909 280.700 L 88.019 312.000 97.609 312.000 L 107.200 312.000 107.200 309.934 L 107.200 307.868 105.330 309.765 L 103.460 311.662 101.030 311.449 C 92.362 310.687,89.856 309.777,88.802 307.004 C 88.090 305.131,88.270 255.012,88.993 253.613 C 90.071 251.529,91.401 251.200,98.749 251.200 L 105.375 251.200 106.287 252.262 L 107.200 253.324 107.271 252.062 C 107.457 248.788,108.571 249.151,97.728 248.957 C 92.409 248.862,87.999 248.923,87.928 249.092 M112.793 249.200 C 112.415 259.986,112.918 312.193,113.399 312.167 C 113.730 312.148,118.860 312.103,124.800 312.067 L 135.600 312.000 135.600 310.000 C 135.600 308.133,135.533 308.000,134.600 308.000 C 133.800 308.000,133.600 308.200,133.600 309.000 C 133.600 309.782,133.396 310.000,132.662 310.000 C 132.146 310.000,131.398 310.360,131.000 310.800 C 128.973 313.039,117.825 311.562,115.400 308.733 C 114.598 307.798,113.869 256.521,114.600 252.500 L 114.836 251.200 124.329 251.200 C 133.679 251.200,133.834 251.214,134.593 252.100 L 135.364 253.000 135.691 251.427 C 135.871 250.562,135.964 249.693,135.899 249.497 C 135.777 249.132,112.806 248.837,112.793 249.200 M141.092 249.151 C 141.041 249.288,141.048 263.484,141.107 280.697 L 141.214 311.995 201.007 312.097 L 260.800 312.200 260.871 281.500 C 260.911 264.615,260.956 250.395,260.971 249.900 L 261.000 249.000 201.092 248.951 C 168.143 248.924,141.143 249.014,141.092 249.151 M265.752 249.381 C 265.634 249.687,265.732 250.300,265.969 250.742 C 266.206 251.185,266.400 253.125,266.400 255.054 C 266.400 258.896,267.115 259.342,267.493 255.735 C 267.644 254.293,268.009 253.469,268.926 252.500 L 270.157 251.200 275.799 251.200 C 279.471 251.200,281.816 251.375,282.517 251.700 L 283.594 252.200 283.597 280.076 C 283.599 300.859,283.481 308.026,283.134 308.241 C 281.253 309.403,272.162 308.777,270.529 307.372 C 269.908 306.838,269.175 306.401,268.900 306.400 C 268.618 306.400,268.400 305.907,268.400 305.270 C 268.400 304.581,268.009 303.772,267.400 303.200 L 266.400 302.261 266.387 304.830 C 266.380 306.295,266.045 308.346,265.609 309.600 C 264.368 313.166,265.037 313.571,270.690 312.675 C 275.479 311.916,282.564 311.778,284.229 312.411 C 284.824 312.637,285.386 312.747,285.479 312.655 C 285.693 312.441,285.632 249.499,285.418 249.284 C 284.901 248.768,265.952 248.861,265.752 249.381 M193.454 251.798 C 195.137 252.675,214.463 252.675,216.146 251.798 C 217.649 251.013,256.092 250.894,257.791 251.669 C 259.292 252.353,259.257 251.573,259.123 280.884 L 259.000 307.928 257.810 308.864 L 256.620 309.800 208.010 310.093 C 181.274 310.254,156.430 310.414,152.800 310.449 C 149.170 310.483,145.525 310.377,144.700 310.212 L 143.200 309.912 143.200 280.556 L 143.200 251.200 167.754 251.200 C 188.757 251.200,192.474 251.286,193.454 251.798 M294.828 312.800 C 294.828 320.455,294.891 321.290,295.400 320.400 C 295.832 319.644,295.972 317.788,295.972 312.800 C 295.972 307.812,295.832 305.956,295.400 305.200 C 294.891 304.310,294.828 305.145,294.828 312.800 M85.892 317.441 C 85.760 317.574,85.820 318.125,86.026 318.667 C 86.231 319.209,86.400 320.840,86.400 322.293 C 86.400 325.161,86.813 325.386,87.174 322.714 C 87.360 321.339,87.647 320.898,88.800 320.222 C 90.752 319.076,101.862 319.180,105.130 320.374 L 107.200 321.131 107.205 320.066 C 107.208 319.479,107.319 318.595,107.452 318.100 L 107.693 317.200 96.913 317.200 C 90.984 317.200,86.025 317.309,85.892 317.441 M112.724 317.500 C 112.656 317.665,112.650 322.480,112.712 328.200 L 112.823 338.600 115.649 338.466 L 118.475 338.331 117.568 337.366 C 117.069 336.835,116.258 336.400,115.766 336.400 C 114.505 336.400,113.670 320.991,114.867 319.799 C 116.060 318.611,133.600 319.201,133.600 320.429 C 133.600 320.976,133.879 321.200,134.558 321.200 C 135.471 321.200,136.292 318.574,135.714 317.500 C 135.625 317.335,130.444 317.200,124.200 317.200 C 117.956 317.200,112.792 317.335,112.724 317.500 M141.124 317.500 C 141.056 317.665,141.090 322.480,141.200 328.200 L 141.400 338.600 145.000 338.399 C 148.425 338.209,148.542 338.172,147.400 337.656 C 146.740 337.358,145.887 336.953,145.505 336.757 C 145.123 336.561,144.448 336.400,144.005 336.400 C 143.224 336.400,143.200 336.152,143.200 328.000 L 143.200 319.600 144.300 319.562 C 151.555 319.315,255.493 319.750,255.780 320.030 C 255.989 320.233,256.735 320.400,257.437 320.400 C 260.733 320.400,259.829 335.840,256.431 337.588 L 255.000 338.324 257.888 338.462 L 260.777 338.600 260.888 328.200 C 260.950 322.480,260.944 317.665,260.876 317.500 C 260.808 317.335,233.864 317.200,201.000 317.200 C 168.136 317.200,141.192 317.335,141.124 317.500 M265.800 317.600 C 265.664 317.820,265.695 318.225,265.869 318.500 C 266.043 318.775,266.291 319.900,266.420 321.000 C 266.643 322.909,266.674 322.952,267.101 321.942 C 267.940 319.957,269.430 319.600,276.861 319.600 L 283.600 319.600 283.593 327.100 C 283.584 336.758,283.843 336.400,276.854 336.400 C 271.077 336.400,268.400 335.510,268.400 333.590 C 268.400 332.987,267.974 332.140,267.400 331.600 L 266.400 330.661 266.396 333.230 C 266.393 334.644,266.287 336.430,266.159 337.200 L 265.927 338.600 274.864 338.600 C 279.779 338.600,284.205 338.747,284.700 338.927 L 285.600 339.254 285.600 328.227 L 285.600 317.200 275.824 317.200 C 269.737 317.200,265.954 317.351,265.800 317.600 M288.800 330.130 L 288.800 343.220 287.714 343.633 C 287.054 343.884,282.632 344.020,276.414 343.980 L 266.200 343.915 266.317 345.641 C 266.463 347.809,266.685 348.027,267.599 346.900 C 268.547 345.730,284.250 345.488,286.420 346.610 L 287.600 347.221 287.600 450.010 C 287.600 550.911,287.614 552.800,288.364 552.800 C 289.171 552.800,289.917 318.395,289.113 317.420 C 288.941 317.211,288.800 322.930,288.800 330.130 M133.600 332.600 C 133.600 336.387,133.596 336.400,132.600 336.400 C 131.800 336.400,131.600 336.600,131.600 337.400 C 131.600 338.333,131.733 338.400,133.600 338.400 L 135.600 338.400 135.600 333.600 L 135.600 328.800 134.600 328.800 C 133.604 328.800,133.600 328.813,133.600 332.600 M294.816 374.380 C 294.803 410.684,294.900 419.660,295.300 419.260 C 296.112 418.448,296.231 331.577,295.421 330.086 C 294.899 329.124,294.830 334.181,294.816 374.380 M86.419 335.700 L 86.400 338.400 89.000 338.400 C 92.029 338.400,92.188 338.229,89.982 337.346 C 88.750 336.853,88.134 336.258,87.401 334.849 L 86.437 333.000 86.419 335.700 M105.200 335.474 C 105.200 336.065,104.809 336.965,104.330 337.474 L 103.461 338.400 105.330 338.400 L 107.200 338.400 107.200 336.400 C 107.200 334.533,107.133 334.400,106.200 334.400 C 105.382 334.400,105.200 334.595,105.200 335.474 M154.400 337.400 L 154.400 338.400 201.900 338.386 C 243.280 338.373,249.271 338.298,248.400 337.800 C 247.850 337.486,246.736 337.222,245.924 337.214 C 245.112 337.206,244.336 337.020,244.200 336.800 C 244.064 336.580,242.984 336.400,241.800 336.400 C 240.616 336.400,239.536 336.580,239.400 336.800 C 239.264 337.020,237.734 337.200,236.000 337.200 C 234.266 337.200,232.736 337.020,232.600 336.800 C 232.438 336.538,218.929 336.400,193.376 336.400 L 154.400 336.400 154.400 337.400 M112.666 343.867 C 112.080 344.456,112.914 558.037,113.501 557.924 C 114.163 557.796,114.210 552.264,114.400 452.128 C 114.510 394.014,114.716 346.351,114.858 346.209 C 115.658 345.409,133.771 346.022,134.684 346.879 L 135.600 347.739 135.600 346.502 C 135.600 345.822,135.707 344.986,135.838 344.645 C 136.037 344.126,113.171 343.358,112.666 343.867 M141.067 343.867 C 140.560 344.373,141.303 571.200,141.811 571.200 C 143.178 571.200,143.200 569.415,143.200 457.574 L 143.200 346.000 151.300 345.998 C 234.248 345.981,258.567 346.034,258.764 346.230 C 258.894 346.360,259.090 394.014,259.200 452.128 C 259.390 552.349,259.436 557.796,260.100 557.924 C 260.842 558.067,260.800 570.676,260.800 344.195 C 260.800 344.017,141.244 343.689,141.067 343.867 M40.267 416.667 C 39.823 417.110,39.952 437.923,40.400 438.200 C 40.663 438.363,40.800 434.671,40.800 427.424 C 40.800 421.361,40.740 416.400,40.667 416.400 C 40.593 416.400,40.413 416.520,40.267 416.667 M294.832 550.700 L 294.800 552.800 297.700 552.726 C 300.137 552.664,300.271 552.629,298.542 552.507 C 296.514 552.363,296.472 552.334,295.674 550.481 L 294.865 548.600 294.832 550.700 M104.100 552.687 C 104.705 552.778,105.695 552.778,106.300 552.687 C 106.905 552.595,106.410 552.520,105.200 552.520 C 103.990 552.520,103.495 552.595,104.100 552.687 M315.111 552.693 C 316.051 552.778,317.491 552.777,318.311 552.691 C 319.130 552.605,318.360 552.536,316.600 552.537 C 314.840 552.539,314.170 552.609,315.111 552.693 M13.300 557.865 C 12.548 558.168,12.699 559.118,13.574 559.586 C 14.059 559.845,18.911 560.000,26.574 560.000 L 38.800 560.000 38.800 561.000 C 38.800 561.800,39.000 562.000,39.800 562.000 C 40.629 562.000,40.800 561.808,40.800 560.880 C 40.800 560.264,41.013 559.547,41.273 559.287 C 42.122 558.438,41.476 558.389,28.161 558.294 C 20.922 558.242,14.730 558.079,14.400 557.932 C 14.070 557.784,13.575 557.754,13.300 557.865 M46.400 562.190 C 46.400 565.943,46.480 566.455,47.033 566.243 C 47.381 566.109,47.831 566.000,48.033 566.000 C 48.235 566.000,48.400 564.650,48.400 563.000 L 48.400 560.000 80.186 560.000 C 111.562 560.000,111.977 559.990,112.400 559.200 C 112.826 558.403,112.704 558.400,81.114 558.396 C 63.671 558.393,48.725 558.280,47.900 558.143 L 46.400 557.895 46.400 562.190 M261.200 558.957 C 261.200 559.926,262.185 560.000,275.033 560.000 L 287.600 560.000 287.656 562.900 C 287.687 564.495,287.675 566.433,287.631 567.207 C 287.538 568.811,288.180 570.800,288.790 570.800 C 289.052 570.800,289.200 568.566,289.200 564.600 L 289.200 558.400 275.200 558.400 C 263.500 558.400,261.200 558.492,261.200 558.957 M134.620 564.778 C 134.233 565.206,133.350 565.627,132.658 565.714 C 131.846 565.816,132.144 565.895,133.500 565.936 C 135.490 565.997,135.600 565.948,135.600 565.000 C 135.600 563.796,135.524 563.779,134.620 564.778 M294.800 564.930 C 294.800 565.962,294.875 565.998,296.900 565.940 C 298.237 565.902,298.564 565.818,297.800 565.708 C 297.140 565.613,296.195 565.159,295.700 564.698 L 294.800 563.861 294.800 564.930 M80.470 565.900 C 88.759 565.960,102.439 565.960,110.870 565.900 C 119.302 565.840,112.520 565.790,95.800 565.790 C 79.080 565.790,72.182 565.839,80.470 565.900 M42.198 572.300 L 43.245 573.200 91.573 573.200 C 141.182 573.200,142.107 573.174,140.733 571.799 C 140.633 571.700,118.187 571.569,90.852 571.509 L 41.152 571.400 42.198 572.300 M289.857 572.203 C 290.248 573.222,290.450 573.226,339.486 573.111 C 384.281 573.007,387.214 572.958,387.871 572.300 C 388.538 571.633,386.216 571.600,339.098 571.600 C 295.161 571.600,289.651 571.668,289.857 572.203 " stroke="none" fill="#7f7f7f" fill-rule="evenodd"></path><path id="path1" d="M101.891 16.689 C 102.601 16.777,103.861 16.779,104.691 16.692 C 105.521 16.605,104.940 16.533,103.400 16.531 C 101.860 16.529,101.181 16.600,101.891 16.689 M321.300 16.676 C 321.685 16.776,322.315 16.776,322.700 16.676 C 323.085 16.575,322.770 16.493,322.000 16.493 C 321.230 16.493,320.915 16.575,321.300 16.676 M15.100 17.232 C 14.358 17.664,13.959 557.280,14.700 557.738 C 14.865 557.840,14.955 436.416,14.899 287.906 C 14.804 31.062,14.833 17.863,15.499 17.357 C 16.329 16.728,16.093 16.654,15.100 17.232 M19.107 17.090 C 19.826 17.179,20.906 17.177,21.507 17.086 C 22.108 16.995,21.520 16.922,20.200 16.924 C 18.880 16.926,18.388 17.001,19.107 17.090 M17.358 19.766 C 17.238 20.078,17.205 20.843,17.284 21.466 C 17.402 22.391,17.464 22.287,17.625 20.900 C 17.827 19.151,17.738 18.775,17.358 19.766 M42.100 19.500 C 54.145 19.559,73.855 19.559,85.900 19.500 C 97.945 19.441,88.090 19.393,64.000 19.393 C 39.910 19.393,30.055 19.441,42.100 19.500 M288.300 19.500 C 300.675 19.559,320.925 19.559,333.300 19.500 C 345.675 19.441,335.550 19.393,310.800 19.393 C 286.050 19.393,275.925 19.441,288.300 19.500 M264.875 20.532 C 263.933 22.757,264.412 218.108,265.362 219.158 C 265.982 219.843,266.542 219.987,268.362 219.933 L 270.600 219.866 268.223 219.633 C 265.270 219.344,264.786 218.312,265.789 214.443 C 266.508 211.669,266.742 21.600,266.027 21.600 C 265.821 21.600,265.586 21.105,265.504 20.500 L 265.354 19.400 264.875 20.532 M356.151 24.400 C 356.151 26.930,356.216 27.965,356.296 26.700 C 356.375 25.435,356.375 23.365,356.296 22.100 C 356.216 20.835,356.151 21.870,356.151 24.400 M358.466 25.200 C 358.410 27.897,358.966 29.609,360.000 29.914 C 360.367 30.023,360.298 29.860,359.823 29.495 C 359.220 29.032,358.987 28.193,358.783 25.749 L 358.521 22.600 358.466 25.200 M355.433 29.500 C 355.269 29.665,340.254 29.894,322.067 30.008 L 289.000 30.216 322.267 30.208 C 352.212 30.201,356.628 30.095,355.933 29.400 C 355.823 29.290,355.598 29.335,355.433 29.500 M43.429 30.629 C 42.858 31.199,42.800 55.495,42.800 292.002 L 42.800 552.747 41.700 552.913 C 40.676 553.069,40.690 553.084,41.900 553.140 L 43.200 553.200 43.200 292.249 C 43.200 74.134,43.288 31.225,43.738 30.851 C 44.122 30.533,53.333 30.375,75.838 30.300 L 107.400 30.195 75.729 30.098 C 47.386 30.010,43.991 30.066,43.429 30.629 M117.100 30.299 C 119.575 30.369,123.625 30.369,126.100 30.299 C 128.575 30.228,126.550 30.171,121.600 30.171 C 116.650 30.171,114.625 30.228,117.100 30.299 M365.723 30.299 C 368.541 30.368,373.041 30.368,375.723 30.299 C 378.405 30.230,376.100 30.173,370.600 30.173 C 365.100 30.174,362.905 30.230,365.723 30.299 M386.526 30.500 C 387.163 30.970,387.198 47.481,387.102 301.262 C 387.046 449.906,387.135 571.440,387.300 571.338 C 387.846 571.001,387.666 31.026,387.120 30.480 C 386.856 30.216,386.462 30.000,386.244 30.000 C 386.025 30.000,386.153 30.225,386.526 30.500 M45.762 32.954 C 45.645 33.259,45.610 34.294,45.683 35.254 C 45.813 36.944,45.823 36.926,46.009 34.699 C 46.203 32.365,46.145 31.956,45.762 32.954 M81.363 32.700 C 101.309 32.781,107.473 32.921,107.963 33.303 C 108.527 33.743,108.537 33.720,108.051 33.100 C 107.537 32.444,105.853 32.406,81.451 32.497 L 55.400 32.594 81.363 32.700 M124.567 32.700 C 132.664 32.782,135.908 32.949,136.367 33.306 C 136.926 33.742,136.936 33.718,136.451 33.100 C 135.948 32.459,134.957 32.408,124.651 32.493 L 113.400 32.587 124.567 32.700 M293.742 33.006 C 293.614 33.339,293.654 34.014,293.831 34.506 C 294.008 34.998,294.261 38.820,294.393 43.000 L 294.634 50.600 294.717 42.924 C 294.769 38.146,294.649 35.154,294.400 35.000 C 293.830 34.648,293.904 32.905,294.500 32.665 C 294.892 32.507,294.889 32.456,294.487 32.432 C 294.206 32.414,293.870 32.673,293.742 33.006 M310.529 32.700 C 318.411 32.761,331.191 32.761,338.929 32.700 C 346.668 32.639,340.220 32.589,324.600 32.590 C 308.980 32.590,302.648 32.639,310.529 32.700 M359.149 33.061 C 358.685 33.620,358.600 70.502,358.599 271.161 L 358.597 508.600 358.800 271.000 C 358.911 140.320,359.047 33.349,359.101 33.287 C 359.156 33.225,359.605 33.011,360.100 32.812 C 360.709 32.568,360.790 32.443,360.349 32.425 C 359.991 32.411,359.451 32.698,359.149 33.061 M368.124 32.699 C 371.162 32.767,376.022 32.767,378.924 32.699 C 381.826 32.631,379.340 32.575,373.400 32.575 C 367.460 32.575,365.086 32.631,368.124 32.699 M356.189 60.400 C 356.189 75.470,356.239 81.635,356.300 74.100 C 356.361 66.565,356.361 54.235,356.300 46.700 C 356.239 39.165,356.189 45.330,356.189 60.400 M356.199 319.400 C 356.199 438.860,356.244 487.670,356.300 427.867 C 356.356 368.064,356.356 270.324,356.300 210.667 C 356.244 151.010,356.199 199.940,356.199 319.400 M294.594 178.200 C 294.594 207.020,294.642 218.751,294.700 204.269 C 294.758 189.787,294.758 166.207,294.700 151.869 C 294.642 137.531,294.594 149.380,294.594 178.200 M136.173 217.970 C 136.292 218.582,136.111 219.144,135.681 219.492 C 135.077 219.981,135.102 219.995,135.900 219.608 C 136.886 219.130,136.925 218.981,136.364 217.800 C 136.025 217.088,136.004 217.106,136.173 217.970 M140.412 218.651 C 140.391 219.446,141.518 220.063,142.676 219.889 C 143.768 219.725,143.764 219.718,142.520 219.660 C 141.772 219.625,141.070 219.309,140.832 218.900 C 140.608 218.515,140.419 218.403,140.412 218.651 M93.500 222.299 C 95.975 222.369,100.025 222.369,102.500 222.299 C 104.975 222.228,102.950 222.171,98.000 222.171 C 93.050 222.171,91.025 222.228,93.500 222.299 M118.900 222.299 C 121.925 222.367,126.875 222.367,129.900 222.299 C 132.925 222.231,130.450 222.175,124.400 222.175 C 118.350 222.175,115.875 222.231,118.900 222.299 M170.300 222.300 C 186.635 222.358,213.365 222.358,229.700 222.300 C 246.035 222.242,232.670 222.195,200.000 222.195 C 167.330 222.195,153.965 222.242,170.300 222.300 M265.200 222.391 C 264.358 222.923,264.076 242.167,264.875 244.600 L 265.400 246.200 265.722 244.000 C 266.432 239.157,266.508 225.487,265.833 224.200 C 265.254 223.097,265.258 222.960,265.878 222.500 C 266.661 221.920,266.091 221.829,265.200 222.391 M271.678 222.298 C 274.031 222.369,277.991 222.369,280.478 222.299 C 282.965 222.229,281.040 222.171,276.200 222.170 C 271.360 222.170,269.325 222.228,271.678 222.298 M86.832 222.824 C 86.814 223.166,87.080 223.796,87.422 224.224 C 88.034 224.988,88.038 224.987,87.676 224.200 C 87.474 223.760,87.208 223.130,87.086 222.800 C 86.893 222.282,86.859 222.285,86.832 222.824 M136.100 223.700 C 135.670 224.875,135.680 224.926,136.212 224.224 C 136.721 223.552,137.021 222.400,136.688 222.400 C 136.626 222.400,136.361 222.985,136.100 223.700 M287.765 232.600 C 287.766 236.560,287.826 238.126,287.898 236.080 C 287.971 234.034,287.971 230.794,287.898 228.880 C 287.824 226.966,287.765 228.640,287.765 232.600 M294.575 244.600 C 294.575 250.540,294.631 253.026,294.699 250.124 C 294.767 247.222,294.767 242.362,294.699 239.324 C 294.631 236.286,294.575 238.660,294.575 244.600 M92.700 246.299 C 95.395 246.368,99.805 246.368,102.500 246.299 C 105.195 246.230,102.990 246.173,97.600 246.173 C 92.210 246.173,90.005 246.230,92.700 246.299 M118.524 246.299 C 121.783 246.367,127.003 246.366,130.124 246.299 C 133.246 246.231,130.580 246.176,124.200 246.177 C 117.820 246.177,115.266 246.232,118.524 246.299 M170.869 246.300 C 187.296 246.358,214.296 246.358,230.869 246.300 C 247.441 246.242,234.000 246.195,201.000 246.195 C 168.000 246.195,154.441 246.242,170.869 246.300 M271.100 246.299 C 274.015 246.367,278.785 246.367,281.700 246.299 C 284.615 246.231,282.230 246.175,276.400 246.175 C 270.570 246.175,268.185 246.231,271.100 246.299 M87.185 249.018 C 86.764 249.526,86.791 249.865,87.340 250.918 C 87.860 251.916,87.949 251.978,87.744 251.200 C 87.139 248.908,86.830 249.017,94.600 248.786 L 101.800 248.572 94.749 248.486 C 88.806 248.414,87.617 248.497,87.185 249.018 M113.900 248.689 C 114.615 248.778,115.785 248.778,116.500 248.689 C 117.215 248.601,116.630 248.528,115.200 248.528 C 113.770 248.528,113.185 248.601,113.900 248.689 M133.100 248.682 C 133.595 248.778,134.405 248.778,134.900 248.682 C 135.395 248.587,134.990 248.509,134.000 248.509 C 133.010 248.509,132.605 248.587,133.100 248.682 M142.300 248.689 C 143.015 248.778,144.185 248.778,144.900 248.689 C 145.615 248.601,145.030 248.528,143.600 248.528 C 142.170 248.528,141.585 248.601,142.300 248.689 M182.500 248.700 C 196.965 248.758,220.635 248.758,235.100 248.700 C 249.565 248.642,237.730 248.594,208.800 248.594 C 179.870 248.594,168.035 248.642,182.500 248.700 M268.517 248.697 C 270.011 248.774,272.351 248.774,273.717 248.696 C 275.082 248.618,273.860 248.555,271.000 248.555 C 268.140 248.556,267.022 248.620,268.517 248.697 M280.400 248.647 C 282.749 248.945,285.911 248.977,285.739 248.700 C 285.637 248.535,284.168 248.427,282.476 248.460 C 280.784 248.493,279.850 248.577,280.400 248.647 M136.157 249.130 C 136.311 249.379,136.239 249.992,135.996 250.492 C 135.574 251.362,135.582 251.368,136.178 250.624 C 136.921 249.697,136.955 249.343,136.338 248.962 C 136.055 248.787,135.985 248.852,136.157 249.130 M264.814 249.574 C 263.965 251.160,264.271 312.159,265.131 312.938 C 265.534 313.302,266.024 313.600,266.220 313.600 C 266.417 313.600,266.178 313.320,265.689 312.977 C 264.592 312.209,264.511 310.306,265.502 308.600 C 266.534 306.825,266.795 253.124,265.782 251.165 C 265.430 250.484,265.239 249.674,265.359 249.364 C 265.678 248.531,265.293 248.679,264.814 249.574 M78.988 278.800 C 78.988 291.890,79.038 297.245,79.100 290.700 C 79.161 284.155,79.161 273.445,79.100 266.900 C 79.038 260.355,78.988 265.710,78.988 278.800 M294.554 310.800 C 294.554 313.550,294.618 314.675,294.696 313.300 C 294.774 311.925,294.774 309.675,294.696 308.300 C 294.618 306.925,294.554 308.050,294.554 310.800 M260.893 310.400 C 260.893 311.170,260.975 311.485,261.076 311.100 C 261.176 310.715,261.176 310.085,261.076 309.700 C 260.975 309.315,260.893 309.630,260.893 310.400 M285.979 311.000 C 285.805 312.553,285.759 312.597,284.400 312.492 C 277.538 311.964,276.419 311.990,272.200 312.777 C 268.079 313.545,267.990 313.580,270.800 313.337 C 272.450 313.194,276.449 313.057,279.687 313.032 C 286.153 312.982,286.541 312.849,286.308 310.751 L 286.158 309.400 285.979 311.000 M87.886 312.681 C 87.995 312.964,88.290 313.066,88.542 312.909 C 88.794 312.751,91.070 312.504,93.600 312.360 L 98.200 312.099 92.945 312.133 C 88.836 312.159,87.732 312.279,87.886 312.681 M105.300 312.276 C 105.685 312.376,106.315 312.376,106.700 312.276 C 107.085 312.175,106.770 312.093,106.000 312.093 C 105.230 312.093,104.915 312.175,105.300 312.276 M112.406 312.313 C 112.395 313.207,113.565 313.320,116.322 312.690 C 118.030 312.300,118.566 312.068,117.800 312.049 C 117.140 312.033,115.805 312.203,114.834 312.427 C 113.471 312.741,112.993 312.716,112.740 312.317 C 112.476 311.900,112.411 311.899,112.406 312.313 M131.600 312.225 C 133.027 312.540,135.600 312.595,135.600 312.311 C 135.600 312.140,134.565 312.021,133.300 312.046 C 132.035 312.072,131.270 312.152,131.600 312.225 M141.900 312.276 C 141.515 312.376,141.200 312.636,141.200 312.853 C 141.200 313.074,141.419 313.105,141.700 312.924 C 141.975 312.746,150.300 312.505,160.200 312.388 L 178.200 312.177 160.400 312.135 C 150.610 312.112,142.285 312.175,141.900 312.276 M223.000 312.401 C 242.800 312.523,259.380 312.768,259.845 312.944 C 260.450 313.173,260.756 313.091,260.925 312.652 C 261.135 312.105,257.223 312.047,224.080 312.109 L 187.000 312.178 223.000 312.401 M85.144 317.387 C 84.729 317.806,85.226 319.124,85.896 319.381 C 86.357 319.558,86.408 319.489,86.100 319.109 C 85.872 318.829,85.622 318.269,85.543 317.864 C 85.464 317.459,85.285 317.245,85.144 317.387 M264.400 328.000 C 264.400 336.907,264.497 338.800,264.951 338.800 C 265.254 338.800,265.709 339.050,265.963 339.355 C 266.314 339.779,266.777 339.822,267.912 339.540 C 270.214 338.967,281.607 338.806,283.530 339.319 C 284.724 339.638,285.318 339.642,285.628 339.332 C 285.938 339.022,285.782 338.953,285.077 339.087 C 284.536 339.191,283.972 339.078,283.823 338.838 C 283.477 338.277,270.895 338.259,268.484 338.815 C 265.702 339.457,265.134 338.920,265.830 336.305 C 266.635 333.281,266.616 321.290,265.803 319.345 C 265.474 318.558,265.305 317.754,265.426 317.558 C 265.548 317.361,265.367 317.200,265.024 317.200 C 264.474 317.200,264.400 318.485,264.400 328.000 M288.144 336.800 C 288.144 338.890,288.212 339.745,288.294 338.700 C 288.376 337.655,288.376 335.945,288.294 334.900 C 288.212 333.855,288.144 334.710,288.144 336.800 M294.593 376.200 C 294.593 399.300,294.641 408.691,294.700 397.069 C 294.759 385.448,294.759 366.548,294.700 355.069 C 294.641 343.591,294.593 353.100,294.593 376.200 M85.646 337.651 C 85.568 338.755,86.567 339.213,88.602 339.007 C 91.381 338.726,91.324 338.400,88.496 338.400 C 86.511 338.400,86.025 338.270,85.876 337.700 C 85.721 337.109,85.686 337.102,85.646 337.651 M96.316 338.697 C 97.699 338.775,99.859 338.774,101.116 338.695 C 102.372 338.616,101.240 338.552,98.600 338.553 C 95.960 338.553,94.932 338.618,96.316 338.697 M105.300 338.676 C 105.685 338.776,106.315 338.776,106.700 338.676 C 107.085 338.575,106.770 338.493,106.000 338.493 C 105.230 338.493,104.915 338.575,105.300 338.676 M113.700 338.682 C 113.205 338.778,112.800 339.023,112.800 339.228 C 112.800 339.433,112.845 339.592,112.900 339.582 C 112.955 339.573,113.900 339.315,115.000 339.009 C 116.960 338.465,116.035 338.233,113.700 338.682 M121.280 338.698 C 123.194 338.771,126.434 338.771,128.480 338.698 C 130.526 338.626,128.960 338.566,125.000 338.565 C 121.040 338.565,119.366 338.624,121.280 338.698 M132.460 338.593 C 132.852 338.985,135.600 339.150,135.600 338.782 C 135.600 338.572,134.850 338.400,133.933 338.400 C 133.017 338.400,132.354 338.487,132.460 338.593 M142.100 338.682 C 141.605 338.778,141.200 339.037,141.200 339.260 C 141.200 339.507,141.702 339.553,142.500 339.377 C 143.215 339.219,144.700 338.957,145.800 338.795 L 147.800 338.500 145.400 338.504 C 144.080 338.507,142.595 338.587,142.100 338.682 M156.071 338.605 C 156.337 338.870,248.065 338.868,248.331 338.602 C 248.442 338.491,227.683 338.400,202.200 338.400 C 176.717 338.400,155.959 338.492,156.071 338.605 M258.600 338.957 C 259.700 339.272,260.675 339.455,260.767 339.365 C 261.114 339.021,260.473 338.797,258.568 338.594 L 256.600 338.385 258.600 338.957 M264.900 343.865 C 264.502 344.026,264.400 365.314,264.400 448.433 L 264.400 552.800 265.400 552.800 L 266.400 552.800 266.400 449.424 C 266.400 375.006,266.277 345.971,265.962 345.777 C 265.722 345.628,265.607 345.077,265.707 344.553 C 265.892 343.586,265.795 343.504,264.900 343.865 M356.114 551.000 C 356.117 552.100,356.195 552.503,356.287 551.895 C 356.379 551.286,356.377 550.386,356.282 549.895 C 356.187 549.403,356.111 549.900,356.114 551.000 M358.514 552.200 C 358.517 553.300,358.595 553.703,358.687 553.095 C 358.779 552.486,358.777 551.586,358.682 551.095 C 358.587 550.603,358.511 551.100,358.514 552.200 M19.000 553.178 C 18.560 553.355,18.037 553.405,17.838 553.288 C 17.639 553.172,17.605 553.284,17.762 553.538 C 18.138 554.147,18.487 554.121,19.424 553.413 C 20.288 552.759,20.185 552.701,19.000 553.178 M37.300 553.076 C 37.685 553.176,38.315 553.176,38.700 553.076 C 39.085 552.975,38.770 552.893,38.000 552.893 C 37.230 552.893,36.915 552.975,37.300 553.076 M47.200 553.271 C 46.542 553.548,46.384 553.760,46.739 553.892 C 47.036 554.002,47.569 553.802,47.925 553.446 C 48.664 552.708,48.585 552.689,47.200 553.271 M353.600 553.159 C 353.600 553.801,355.240 554.124,355.740 553.581 C 356.089 553.203,356.082 553.149,355.708 553.360 C 355.438 553.512,354.853 553.442,354.408 553.204 C 353.919 552.942,353.600 552.924,353.600 553.159 M42.963 564.400 C 42.963 568.030,43.023 569.515,43.098 567.700 C 43.172 565.885,43.172 562.915,43.098 561.100 C 43.023 559.285,42.963 560.770,42.963 564.400 M261.700 558.276 C 262.085 558.376,262.715 558.376,263.100 558.276 C 263.485 558.175,263.170 558.093,262.400 558.093 C 261.630 558.093,261.315 558.175,261.700 558.276 M347.700 558.287 C 348.305 558.378,349.295 558.378,349.900 558.287 C 350.505 558.195,350.010 558.120,348.800 558.120 C 347.590 558.120,347.095 558.195,347.700 558.287 M47.199 566.619 C 46.620 566.939,46.452 567.175,46.800 567.180 C 47.514 567.189,48.657 566.524,48.388 566.254 C 48.284 566.151,47.749 566.314,47.199 566.619 M382.349 566.535 C 382.987 567.308,383.830 567.399,384.238 566.738 C 384.413 566.455,384.348 566.385,384.070 566.557 C 383.821 566.711,383.208 566.619,382.708 566.353 C 381.884 565.914,381.851 565.931,382.349 566.535 " stroke="none" fill="#4c4c4c" fill-rule="evenodd"></path><path id="path2" d="M14.976 16.987 C 14.549 17.310,13.795 17.580,13.300 17.587 L 12.400 17.600 12.406 287.300 C 12.409 435.635,12.544 557.191,12.706 557.425 C 12.868 557.658,13.360 557.845,13.800 557.839 C 14.599 557.829,14.600 557.592,14.499 287.835 C 14.429 99.461,14.526 17.714,14.819 17.421 C 15.106 17.134,28.929 16.935,58.120 16.796 L 101.000 16.593 58.376 16.496 C 21.415 16.413,15.650 16.478,14.976 16.987 M106.905 16.687 C 107.514 16.779,108.414 16.777,108.905 16.682 C 109.397 16.587,108.900 16.511,107.800 16.514 C 106.700 16.517,106.297 16.595,106.905 16.687 M277.329 16.700 C 285.431 16.760,298.571 16.760,306.529 16.700 C 314.488 16.639,307.860 16.590,291.800 16.590 C 275.740 16.590,269.228 16.639,277.329 16.700 M329.725 16.699 C 333.424 16.766,339.364 16.765,342.925 16.699 C 346.486 16.633,343.460 16.579,336.200 16.579 C 328.940 16.579,326.026 16.633,329.725 16.699 M350.705 16.683 C 351.202 16.779,351.922 16.775,352.305 16.675 C 352.687 16.575,352.280 16.496,351.400 16.501 C 350.520 16.505,350.207 16.587,350.705 16.683 M353.700 16.676 C 354.085 16.776,354.715 16.776,355.100 16.676 C 355.485 16.575,355.170 16.493,354.400 16.493 C 353.630 16.493,353.315 16.575,353.700 16.676 M358.102 16.900 C 358.643 17.314,358.777 18.391,358.878 23.133 C 359.040 30.727,357.510 30.022,373.576 29.906 L 386.600 29.811 373.500 29.700 C 362.103 29.604,360.400 29.510,360.400 28.982 C 360.400 28.648,360.130 28.271,359.800 28.145 C 359.309 27.956,359.200 26.959,359.200 22.637 C 359.200 17.508,358.959 16.400,357.844 16.400 C 357.625 16.400,357.742 16.625,358.102 16.900 M18.500 19.476 C 18.885 19.576,19.515 19.576,19.900 19.476 C 20.285 19.375,19.970 19.293,19.200 19.293 C 18.430 19.293,18.115 19.375,18.500 19.476 M355.508 28.875 C 355.367 29.300,349.082 29.439,322.367 29.605 L 289.400 29.809 322.024 29.905 C 355.053 30.001,357.250 29.917,355.941 28.608 C 355.799 28.466,355.605 28.586,355.508 28.875 M107.600 29.133 C 107.600 29.484,99.730 29.624,75.900 29.698 L 44.200 29.795 75.778 29.900 C 105.676 29.999,108.838 29.905,107.873 28.940 C 107.723 28.790,107.600 28.877,107.600 29.133 M117.200 29.885 C 129.811 30.166,141.108 30.173,140.939 29.900 C 140.836 29.735,134.328 29.639,126.476 29.687 C 118.624 29.735,114.450 29.824,117.200 29.885 M387.101 30.461 C 387.500 30.958,387.581 85.444,387.501 301.342 C 387.423 510.489,387.508 571.600,387.877 571.600 C 388.140 571.600,388.635 571.200,388.977 570.711 C 389.871 569.435,389.939 30.584,389.046 30.927 C 388.741 31.044,388.066 30.847,387.546 30.489 C 386.738 29.933,386.673 29.929,387.101 30.461 M42.094 30.977 C 41.455 31.272,41.182 31.749,41.169 32.597 C 40.997 43.165,40.812 551.192,40.979 551.859 C 42.901 559.515,43.000 533.901,43.000 30.580 C 43.000 30.569,42.592 30.748,42.094 30.977 M46.260 32.700 C 46.158 32.865,47.452 32.951,49.137 32.892 C 54.511 32.701,55.127 32.536,50.724 32.467 C 48.372 32.430,46.363 32.535,46.260 32.700 M359.190 33.826 C 358.938 34.490,358.835 127.225,358.899 296.526 L 358.999 558.200 359.199 296.161 C 359.369 74.866,359.485 34.020,359.949 33.461 C 360.318 33.016,360.348 32.800,360.039 32.800 C 359.787 32.800,359.405 33.262,359.190 33.826 M46.188 61.600 C 46.188 74.690,46.238 80.045,46.300 73.500 C 46.361 66.955,46.361 56.245,46.300 49.700 C 46.238 43.155,46.188 48.510,46.188 61.600 M46.153 90.600 C 46.153 93.240,46.218 94.268,46.297 92.884 C 46.375 91.501,46.374 89.341,46.295 88.084 C 46.216 86.828,46.152 87.960,46.153 90.600 M356.167 95.000 C 356.167 99.180,356.226 100.836,356.298 98.679 C 356.371 96.523,356.370 93.103,356.298 91.079 C 356.225 89.056,356.166 90.820,356.167 95.000 M46.158 111.400 C 46.158 114.480,46.221 115.687,46.297 114.082 C 46.373 112.478,46.373 109.958,46.296 108.482 C 46.219 107.007,46.157 108.320,46.158 111.400 M46.199 335.200 C 46.199 454.990,46.244 503.995,46.300 444.100 C 46.356 384.205,46.356 286.195,46.300 226.300 C 46.244 166.405,46.199 215.410,46.199 335.200 M265.691 214.800 C 265.393 216.137,265.330 217.471,265.529 218.200 L 265.857 219.400 277.529 219.409 L 289.200 219.418 277.649 219.303 L 266.098 219.188 265.868 218.041 C 265.742 217.410,265.821 216.232,266.044 215.424 C 266.267 214.616,266.389 213.650,266.315 213.278 C 266.241 212.905,265.960 213.590,265.691 214.800 M83.061 219.500 C 82.959 219.665,86.503 219.754,90.938 219.698 C 105.979 219.507,107.437 219.370,95.324 219.285 C 88.682 219.238,83.164 219.335,83.061 219.500 M118.524 219.499 C 121.783 219.567,127.003 219.566,130.124 219.499 C 133.246 219.431,130.580 219.376,124.200 219.377 C 117.820 219.377,115.266 219.432,118.524 219.499 M170.869 219.500 C 187.296 219.558,214.296 219.558,230.869 219.500 C 247.441 219.442,234.000 219.395,201.000 219.395 C 168.000 219.395,154.441 219.442,170.869 219.500 M287.701 224.200 C 287.705 225.080,287.787 225.393,287.883 224.895 C 287.979 224.398,287.975 223.678,287.875 223.295 C 287.775 222.913,287.696 223.320,287.701 224.200 M287.728 242.000 C 287.728 243.430,287.801 244.015,287.889 243.300 C 287.978 242.585,287.978 241.415,287.889 240.700 C 287.801 239.985,287.728 240.570,287.728 242.000 M265.857 241.900 C 265.516 243.959,265.538 246.001,265.900 245.996 C 266.065 245.994,266.240 244.734,266.288 243.196 C 266.386 240.091,266.232 239.628,265.857 241.900 M286.400 245.600 L 285.400 245.920 286.500 245.960 C 287.105 245.982,287.600 245.820,287.600 245.600 C 287.600 245.380,287.555 245.218,287.500 245.240 C 287.445 245.262,286.950 245.424,286.400 245.600 M97.505 249.083 C 98.002 249.179,98.722 249.175,99.105 249.075 C 99.487 248.975,99.080 248.896,98.200 248.901 C 97.320 248.905,97.007 248.987,97.505 249.083 M102.500 249.087 C 103.105 249.178,104.095 249.178,104.700 249.087 C 105.305 248.995,104.810 248.920,103.600 248.920 C 102.390 248.920,101.895 248.995,102.500 249.087 M121.100 249.098 C 123.355 249.170,127.045 249.170,129.300 249.098 C 131.555 249.027,129.710 248.969,125.200 248.969 C 120.690 248.969,118.845 249.027,121.100 249.098 M148.917 249.097 C 150.411 249.174,152.751 249.174,154.117 249.096 C 155.482 249.018,154.260 248.955,151.400 248.955 C 148.540 248.956,147.422 249.020,148.917 249.097 M248.700 249.093 C 249.635 249.177,251.165 249.177,252.100 249.093 C 253.035 249.009,252.270 248.940,250.400 248.940 C 248.530 248.940,247.765 249.009,248.700 249.093 M265.357 249.367 C 265.238 249.679,265.435 250.444,265.795 251.067 C 266.156 251.690,266.320 251.840,266.160 251.400 C 266.000 250.960,265.854 250.195,265.835 249.700 C 265.795 248.660,265.664 248.569,265.357 249.367 M276.905 249.087 C 277.514 249.179,278.414 249.177,278.905 249.082 C 279.397 248.987,278.900 248.911,277.800 248.914 C 276.700 248.917,276.297 248.995,276.905 249.087 M284.698 249.062 L 285.595 249.255 285.701 279.927 L 285.808 310.600 285.804 279.800 L 285.800 249.000 284.800 248.934 C 283.924 248.877,283.911 248.893,284.698 249.062 M266.032 306.854 C 266.014 307.214,265.731 308.024,265.402 308.654 C 265.074 309.284,264.810 310.250,264.816 310.800 C 264.823 311.441,265.116 310.958,265.633 309.457 C 266.076 308.169,266.354 306.909,266.251 306.657 C 266.148 306.406,266.049 306.494,266.032 306.854 M113.400 312.419 C 112.842 312.671,113.085 312.707,114.200 312.538 C 115.080 312.404,115.875 312.228,115.967 312.147 C 116.310 311.844,114.168 312.071,113.400 312.419 M283.000 312.400 C 283.440 312.589,284.070 312.744,284.400 312.744 C 284.778 312.744,284.704 312.617,284.200 312.400 C 283.760 312.211,283.130 312.056,282.800 312.056 C 282.422 312.056,282.496 312.183,283.000 312.400 M285.600 327.919 L 285.799 339.000 285.906 328.227 C 285.965 322.301,285.875 317.315,285.707 317.146 C 285.538 316.977,285.490 321.825,285.600 327.919 M265.426 317.559 C 265.304 317.756,265.483 318.521,265.824 319.259 C 266.222 320.120,266.351 320.242,266.183 319.600 C 266.040 319.050,265.901 318.285,265.875 317.900 C 265.822 317.108,265.742 317.047,265.426 317.559 M289.600 329.720 L 289.799 342.200 289.906 330.026 C 289.964 323.330,289.874 317.714,289.706 317.546 C 289.538 317.377,289.490 322.855,289.600 329.720 M288.400 330.480 C 288.290 337.675,288.338 343.423,288.506 343.255 C 288.674 343.086,288.764 337.200,288.705 330.174 L 288.599 317.400 288.400 330.480 M265.721 336.610 C 265.493 337.605,265.443 338.503,265.609 338.605 C 265.919 338.797,266.589 335.256,266.297 334.964 C 266.208 334.874,265.948 335.615,265.721 336.610 M87.300 343.899 C 90.985 343.965,97.015 343.965,100.700 343.899 C 104.385 343.833,101.370 343.779,94.000 343.779 C 86.630 343.779,83.615 343.833,87.300 343.899 M118.700 343.899 C 121.835 343.967,126.965 343.967,130.100 343.899 C 133.235 343.832,130.670 343.776,124.400 343.776 C 118.130 343.776,115.565 343.832,118.700 343.899 M171.100 343.900 C 187.435 343.958,214.165 343.958,230.500 343.900 C 246.835 343.842,233.470 343.795,200.800 343.795 C 168.130 343.795,154.765 343.842,171.100 343.900 M265.867 343.867 C 265.505 344.228,265.528 345.508,265.900 345.738 C 266.065 345.840,266.200 345.401,266.200 344.762 C 266.200 344.123,266.185 343.600,266.167 343.600 C 266.148 343.600,266.013 343.720,265.867 343.867 M272.523 343.899 C 275.341 343.968,279.841 343.968,282.523 343.899 C 285.205 343.830,282.900 343.773,277.400 343.773 C 271.900 343.774,269.705 343.830,272.523 343.899 M21.700 558.299 C 25.165 558.366,30.835 558.366,34.300 558.299 C 37.765 558.233,34.930 558.178,28.000 558.178 C 21.070 558.178,18.235 558.233,21.700 558.299 M41.174 558.376 C 41.633 558.666,41.650 558.858,41.258 559.331 C 40.913 559.746,40.789 561.588,40.842 565.524 L 40.917 571.126 42.258 571.283 C 43.151 571.387,43.466 571.306,43.200 571.040 C 42.967 570.807,42.800 567.996,42.800 564.320 L 42.800 558.000 41.700 558.006 C 40.885 558.011,40.749 558.106,41.174 558.376 M46.148 562.000 C 46.148 564.310,46.214 565.255,46.295 564.100 C 46.376 562.945,46.376 561.055,46.295 559.900 C 46.214 558.745,46.148 559.690,46.148 562.000 M64.100 558.300 C 72.845 558.360,87.155 558.360,95.900 558.300 C 104.645 558.240,97.490 558.191,80.000 558.191 C 62.510 558.191,55.355 558.240,64.100 558.300 M269.900 558.299 C 273.475 558.366,279.325 558.366,282.900 558.299 C 286.475 558.233,283.550 558.179,276.400 558.179 C 269.250 558.179,266.325 558.233,269.900 558.299 M308.129 558.300 C 315.350 558.361,327.050 558.361,334.129 558.300 C 341.208 558.239,335.300 558.189,321.000 558.189 C 306.700 558.189,300.908 558.239,308.129 558.300 M352.500 558.294 C 353.545 558.376,355.255 558.376,356.300 558.294 C 357.345 558.212,356.490 558.144,354.400 558.144 C 352.310 558.144,351.455 558.212,352.500 558.294 " stroke="none" fill="#646464" fill-rule="evenodd"></path><path id="path3" d="M15.845 17.128 C 15.733 17.308,16.173 17.377,16.821 17.282 C 17.470 17.187,18.000 17.040,18.000 16.955 C 18.000 16.650,16.043 16.807,15.845 17.128 M44.931 17.100 C 57.433 17.159,77.773 17.159,90.131 17.100 C 102.489 17.041,92.260 16.993,67.400 16.993 C 42.540 16.993,32.429 17.041,44.931 17.100 M278.400 17.095 C 324.286 17.369,358.306 17.371,358.138 17.100 C 358.036 16.935,336.138 16.843,309.476 16.896 C 282.814 16.948,268.830 17.038,278.400 17.095 M14.899 287.476 C 14.845 436.018,14.935 557.636,15.100 557.738 C 15.371 557.906,15.370 378.491,15.099 115.200 C 15.044 61.410,14.954 138.934,14.899 287.476 M358.528 20.400 C 358.528 21.830,358.601 22.415,358.689 21.700 C 358.778 20.985,358.778 19.815,358.689 19.100 C 358.601 18.385,358.528 18.970,358.528 20.400 M18.905 19.087 C 19.514 19.179,20.414 19.177,20.905 19.082 C 21.397 18.987,20.900 18.911,19.800 18.914 C 18.700 18.917,18.297 18.995,18.905 19.087 M264.800 19.592 C 264.269 19.927,264.200 31.429,264.200 119.174 L 264.200 218.378 265.185 219.289 L 266.170 220.200 265.385 219.258 C 264.155 217.782,264.146 20.667,265.376 19.768 C 266.236 19.139,265.751 18.991,264.800 19.592 M107.278 24.476 C 107.235 26.186,107.378 27.663,107.600 27.800 C 107.820 27.936,108.014 28.442,108.032 28.924 C 108.050 29.428,108.154 29.571,108.278 29.261 C 108.396 28.964,108.294 28.334,108.052 27.861 C 107.809 27.387,107.554 25.740,107.484 24.200 L 107.357 21.400 107.278 24.476 M17.399 287.600 C 17.399 433.570,17.444 493.285,17.500 420.300 C 17.556 347.315,17.556 227.885,17.500 154.900 C 17.444 81.915,17.399 141.630,17.399 287.600 M112.509 25.600 C 112.509 26.590,112.587 26.995,112.682 26.500 C 112.778 26.005,112.778 25.195,112.682 24.700 C 112.587 24.205,112.509 24.610,112.509 25.600 M358.425 28.438 C 358.395 29.207,359.641 30.410,360.431 30.375 C 360.744 30.361,360.591 30.185,360.091 29.984 C 359.590 29.783,359.017 29.210,358.816 28.709 C 358.581 28.124,358.442 28.027,358.425 28.438 M130.900 30.276 C 131.285 30.376,131.915 30.376,132.300 30.276 C 132.685 30.175,132.370 30.093,131.600 30.093 C 130.830 30.093,130.515 30.175,130.900 30.276 M134.900 30.294 C 135.945 30.376,137.655 30.376,138.700 30.294 C 139.745 30.212,138.890 30.144,136.800 30.144 C 134.710 30.144,133.855 30.212,134.900 30.294 M382.900 30.287 C 383.505 30.378,384.495 30.378,385.100 30.287 C 385.705 30.195,385.210 30.120,384.000 30.120 C 382.790 30.120,382.295 30.195,382.900 30.287 M43.649 30.941 C 43.317 31.341,43.226 99.789,43.300 292.241 L 43.401 553.000 43.500 292.180 C 43.578 89.964,43.708 31.252,44.080 30.880 C 44.344 30.616,44.456 30.400,44.329 30.400 C 44.202 30.400,43.896 30.644,43.649 30.941 M386.800 299.320 L 387.000 568.200 387.100 299.620 C 387.155 151.901,387.065 30.905,386.900 30.740 C 386.735 30.575,386.690 151.436,386.800 299.320 M293.324 32.900 C 292.645 33.948,292.730 552.800,293.409 552.800 C 293.745 552.800,294.191 553.250,294.400 553.800 L 294.780 554.800 324.490 554.794 C 351.675 554.788,356.970 554.616,354.453 553.817 C 353.984 553.668,353.600 553.378,353.600 553.173 C 353.600 552.946,342.079 552.800,324.100 552.800 L 294.600 552.800 294.604 303.100 C 294.608 74.232,294.472 32.400,293.724 32.400 C 293.682 32.400,293.502 32.625,293.324 32.900 M136.099 34.391 C 135.412 35.490,135.474 35.783,136.232 35.025 C 136.580 34.677,136.804 34.213,136.731 33.992 C 136.657 33.772,136.373 33.951,136.099 34.391 M384.599 300.400 C 384.599 446.590,384.644 506.395,384.700 433.300 C 384.756 360.205,384.756 240.595,384.700 167.500 C 384.644 94.405,384.599 154.210,384.599 300.400 M112.531 37.800 C 112.533 39.340,112.605 39.921,112.692 39.091 C 112.779 38.261,112.777 37.001,112.689 36.291 C 112.600 35.581,112.529 36.260,112.531 37.800 M45.799 294.800 C 45.799 436.810,45.844 494.905,45.900 423.900 C 45.956 352.895,45.956 236.705,45.900 165.700 C 45.844 94.695,45.799 152.790,45.799 294.800 M356.588 101.000 C 356.588 113.980,356.638 119.232,356.700 112.671 C 356.762 106.111,356.761 95.491,356.700 89.071 C 356.638 82.652,356.587 88.020,356.588 101.000 M112.593 146.800 C 112.593 169.570,112.641 178.885,112.700 167.500 C 112.759 156.115,112.759 137.485,112.700 126.100 C 112.641 114.715,112.593 124.030,112.593 146.800 M356.573 166.000 C 356.573 171.390,356.630 173.595,356.699 170.900 C 356.768 168.205,356.768 163.795,356.699 161.100 C 356.630 158.405,356.573 160.610,356.573 166.000 M112.544 211.600 C 112.544 213.690,112.612 214.545,112.694 213.500 C 112.776 212.455,112.776 210.745,112.694 209.700 C 112.612 208.655,112.544 209.510,112.544 211.600 M260.942 211.400 C 260.941 213.380,261.008 214.240,261.092 213.312 C 261.176 212.384,261.177 210.764,261.095 209.712 C 261.012 208.660,260.943 209.420,260.942 211.400 M140.914 213.800 C 140.917 214.900,140.995 215.303,141.087 214.695 C 141.179 214.086,141.177 213.186,141.082 212.695 C 140.987 212.203,140.911 212.700,140.914 213.800 M107.254 215.820 C 107.225 216.491,107.397 217.237,107.638 217.478 C 109.379 219.219,108.435 219.389,95.795 219.612 L 83.800 219.824 95.757 219.812 C 108.871 219.799,109.208 219.737,108.098 217.526 C 107.842 217.017,107.560 216.150,107.471 215.600 C 107.330 214.728,107.302 214.756,107.254 215.820 M135.693 216.000 C 135.693 216.770,135.775 217.085,135.876 216.700 C 135.976 216.315,135.976 215.685,135.876 215.300 C 135.775 214.915,135.693 215.230,135.693 216.000 M202.400 219.600 L 143.400 219.804 202.276 219.902 C 241.202 219.967,261.237 219.864,261.400 219.600 C 261.536 219.380,261.592 219.244,261.524 219.298 C 261.456 219.352,234.850 219.488,202.400 219.600 M280.000 219.600 L 270.200 219.821 279.876 219.911 C 285.994 219.967,289.644 219.853,289.800 219.600 C 289.936 219.380,289.992 219.240,289.924 219.289 C 289.856 219.338,285.390 219.478,280.000 219.600 M118.724 219.899 C 121.873 219.967,126.913 219.967,129.924 219.899 C 132.936 219.831,130.360 219.776,124.200 219.776 C 118.040 219.776,115.576 219.832,118.724 219.899 M258.900 221.876 C 259.285 221.976,259.915 221.976,260.300 221.876 C 260.685 221.775,260.370 221.693,259.600 221.693 C 258.830 221.693,258.515 221.775,258.900 221.876 M266.705 221.883 C 267.202 221.979,267.922 221.975,268.305 221.875 C 268.687 221.775,268.280 221.696,267.400 221.701 C 266.520 221.705,266.207 221.787,266.705 221.883 M286.000 221.960 L 287.800 222.200 288.033 224.600 L 288.266 227.000 288.333 224.780 C 288.413 222.117,287.980 221.580,285.820 221.660 L 284.200 221.720 286.000 221.960 M264.252 223.300 C 263.702 225.351,264.016 243.760,264.622 245.000 C 265.068 245.912,265.137 245.960,264.908 245.200 C 264.743 244.650,264.606 239.295,264.604 233.300 C 264.602 227.305,264.576 222.400,264.547 222.400 C 264.517 222.400,264.385 222.805,264.252 223.300 M86.254 224.032 C 85.744 226.582,85.982 242.914,86.553 244.555 C 87.055 245.995,88.193 247.140,88.660 246.673 C 88.770 246.563,88.469 246.349,87.991 246.197 C 87.251 245.962,87.163 245.733,87.403 244.660 C 88.172 241.220,88.079 225.350,87.282 224.038 L 86.507 222.764 86.254 224.032 M107.870 223.810 C 107.721 224.245,107.491 224.870,107.358 225.200 C 107.226 225.530,107.419 225.390,107.788 224.890 C 108.158 224.389,108.388 223.764,108.300 223.500 C 108.210 223.231,108.022 223.367,107.870 223.810 M260.931 227.400 C 260.933 228.940,261.005 229.521,261.092 228.691 C 261.179 227.861,261.177 226.601,261.089 225.891 C 261.000 225.181,260.929 225.860,260.931 227.400 M260.940 239.600 C 260.940 241.470,261.009 242.235,261.093 241.300 C 261.177 240.365,261.177 238.835,261.093 237.900 C 261.009 236.965,260.940 237.730,260.940 239.600 M112.528 240.800 C 112.528 242.230,112.601 242.815,112.689 242.100 C 112.778 241.385,112.778 240.215,112.689 239.500 C 112.601 238.785,112.528 239.370,112.528 240.800 M288.082 241.880 C 288.015 244.907,287.876 245.633,287.300 245.968 C 286.915 246.192,286.803 246.381,287.051 246.388 C 288.109 246.416,288.430 245.221,288.298 241.740 L 288.165 238.200 288.082 241.880 M140.909 241.600 C 140.909 242.590,140.987 242.995,141.082 242.500 C 141.178 242.005,141.178 241.195,141.082 240.700 C 140.987 240.205,140.909 240.610,140.909 241.600 M266.900 246.676 C 267.285 246.776,267.915 246.776,268.300 246.676 C 268.685 246.575,268.370 246.493,267.600 246.493 C 266.830 246.493,266.515 246.575,266.900 246.676 M80.948 251.200 C 80.948 253.510,81.014 254.455,81.095 253.300 C 81.176 252.145,81.176 250.255,81.095 249.100 C 81.014 247.945,80.948 248.890,80.948 251.200 M86.749 249.061 C 85.701 250.323,85.739 311.542,86.788 312.277 C 87.235 312.589,87.600 313.105,87.600 313.423 C 87.600 313.910,89.152 314.000,97.600 314.000 L 107.600 314.000 107.594 312.700 C 107.591 311.985,107.456 311.580,107.294 311.800 C 107.119 312.038,103.710 312.238,98.857 312.293 C 94.378 312.344,90.103 312.555,89.357 312.761 C 88.376 313.032,87.995 313.006,87.983 312.668 C 87.974 312.410,87.978 298.743,87.991 282.295 C 88.013 255.314,87.951 252.266,87.358 251.120 C 86.849 250.135,86.803 249.687,87.154 249.125 C 87.720 248.219,87.480 248.181,86.749 249.061 M102.505 248.687 C 103.114 248.779,104.014 248.777,104.505 248.682 C 104.997 248.587,104.500 248.511,103.400 248.514 C 102.300 248.517,101.897 248.595,102.505 248.687 M121.321 248.698 C 123.477 248.771,126.897 248.770,128.921 248.698 C 130.944 248.625,129.180 248.566,125.000 248.567 C 120.820 248.567,119.164 248.626,121.321 248.698 M149.516 248.697 C 150.899 248.775,153.059 248.774,154.316 248.695 C 155.572 248.616,154.440 248.552,151.800 248.553 C 149.160 248.553,148.132 248.618,149.516 248.697 M276.905 248.687 C 277.514 248.779,278.414 248.777,278.905 248.682 C 279.397 248.587,278.900 248.511,277.800 248.514 C 276.700 248.517,276.297 248.595,276.905 248.687 M286.184 267.400 C 286.184 277.520,286.236 281.603,286.300 276.473 C 286.363 271.342,286.363 263.062,286.300 258.073 C 286.236 253.083,286.184 257.280,286.184 267.400 M264.097 281.238 L 264.000 312.276 264.900 313.038 C 265.799 313.799,265.799 313.799,265.102 312.971 C 264.454 312.201,264.398 309.952,264.300 281.171 L 264.195 250.200 264.097 281.238 M260.909 252.800 C 260.909 253.790,260.987 254.195,261.082 253.700 C 261.178 253.205,261.178 252.395,261.082 251.900 C 260.987 251.405,260.909 251.810,260.909 252.800 M286.173 300.200 C 286.173 305.480,286.230 307.585,286.299 304.877 C 286.368 302.169,286.368 297.849,286.299 295.277 C 286.229 292.705,286.172 294.920,286.173 300.200 M80.986 322.800 C 80.986 334.130,81.037 338.765,81.100 333.100 C 81.162 327.435,81.162 318.165,81.100 312.500 C 81.037 306.835,80.986 311.470,80.986 322.800 M260.934 305.600 C 260.934 307.250,261.005 307.925,261.091 307.100 C 261.178 306.275,261.178 304.925,261.091 304.100 C 261.005 303.275,260.934 303.950,260.934 305.600 M112.509 308.000 C 112.509 308.990,112.587 309.395,112.682 308.900 C 112.778 308.405,112.778 307.595,112.682 307.100 C 112.587 306.605,112.509 307.010,112.509 308.000 M140.920 308.800 C 140.920 310.010,140.995 310.505,141.087 309.900 C 141.178 309.295,141.178 308.305,141.087 307.700 C 140.995 307.095,140.920 307.590,140.920 308.800 M135.600 311.121 L 135.600 312.642 132.900 312.341 C 128.037 311.801,119.765 311.953,116.749 312.639 C 115.204 312.990,113.594 313.187,113.170 313.076 C 112.680 312.948,112.400 313.079,112.400 313.437 C 112.400 313.908,114.327 314.000,124.200 314.000 L 136.000 314.000 136.000 311.800 C 136.000 310.590,135.910 309.600,135.800 309.600 C 135.690 309.600,135.600 310.284,135.600 311.121 M140.846 312.900 L 140.800 314.000 201.000 314.000 L 261.200 314.000 261.194 313.100 C 261.190 312.458,261.091 312.352,260.851 312.731 C 260.586 313.149,260.174 313.170,258.911 312.830 C 256.818 312.266,144.395 312.188,142.523 312.748 C 141.464 313.066,141.215 313.017,141.069 312.466 C 140.971 312.097,140.872 312.291,140.846 312.900 M285.847 312.686 C 285.689 312.844,282.824 313.009,279.480 313.053 C 267.565 313.212,264.452 313.861,275.256 313.935 C 284.124 313.996,284.770 313.951,285.656 313.213 C 286.175 312.781,286.495 312.421,286.367 312.413 C 286.238 312.406,286.004 312.529,285.847 312.686 M285.300 316.832 C 285.934 317.201,286.009 318.210,286.093 327.520 L 286.186 337.800 286.300 327.649 C 286.413 317.547,286.284 316.379,285.051 316.412 C 284.803 316.419,284.915 316.608,285.300 316.832 M288.480 316.880 C 288.216 317.144,288.018 317.729,288.040 318.180 C 288.073 318.867,288.125 318.838,288.358 318.000 C 288.511 317.450,288.898 317.000,289.218 317.000 C 289.711 317.000,289.832 318.961,290.008 329.800 L 290.217 342.600 290.308 329.980 C 290.397 317.726,290.289 316.400,289.200 316.400 C 289.068 316.400,288.744 316.616,288.480 316.880 M86.505 317.087 C 87.114 317.179,88.014 317.177,88.505 317.082 C 88.997 316.987,88.500 316.911,87.400 316.914 C 86.300 316.917,85.897 316.995,86.505 317.087 M258.500 317.076 C 258.885 317.176,259.515 317.176,259.900 317.076 C 260.285 316.975,259.970 316.893,259.200 316.893 C 258.430 316.893,258.115 316.975,258.500 317.076 M267.700 317.076 C 268.085 317.176,268.715 317.176,269.100 317.076 C 269.485 316.975,269.170 316.893,268.400 316.893 C 267.630 316.893,267.315 316.975,267.700 317.076 M84.400 327.813 C 84.400 336.754,84.492 338.460,84.985 338.650 C 85.306 338.773,85.679 339.217,85.812 339.637 C 86.042 340.363,86.579 340.400,96.827 340.400 L 107.600 340.400 107.536 338.300 C 107.493 336.893,107.419 336.623,107.312 337.484 L 107.152 338.767 98.876 338.735 C 94.324 338.718,89.679 338.817,88.554 338.957 C 85.922 339.284,85.487 338.824,85.908 336.158 C 86.443 332.764,86.259 319.607,85.671 319.244 C 85.390 319.070,85.131 318.539,85.095 318.064 C 85.059 317.589,84.888 317.200,84.715 317.200 C 84.542 317.200,84.400 321.976,84.400 327.813 M136.104 318.441 C 135.651 319.649,135.663 319.709,136.242 319.129 C 136.591 318.780,136.815 318.185,136.738 317.806 C 136.643 317.332,136.445 317.530,136.104 318.441 M264.093 328.025 L 264.000 338.650 265.184 339.525 C 267.866 341.508,286.400 340.693,286.400 338.592 C 286.400 338.402,286.147 338.593,285.838 339.016 C 285.335 339.704,285.095 339.737,283.569 339.330 C 281.608 338.806,270.247 338.959,267.912 339.540 C 266.777 339.822,266.314 339.779,265.963 339.355 C 265.709 339.050,265.257 338.800,264.958 338.800 C 264.515 338.800,264.392 336.804,264.300 328.100 L 264.186 317.400 264.093 328.025 M112.514 321.000 C 112.517 322.100,112.595 322.503,112.687 321.895 C 112.779 321.286,112.777 320.386,112.682 319.895 C 112.587 319.403,112.511 319.900,112.514 321.000 M260.909 321.200 C 260.909 322.190,260.987 322.595,261.082 322.100 C 261.178 321.605,261.178 320.795,261.082 320.300 C 260.987 319.805,260.909 320.210,260.909 321.200 M288.160 325.800 C 288.161 329.100,288.222 330.397,288.298 328.682 C 288.373 326.967,288.372 324.267,288.297 322.682 C 288.221 321.097,288.159 322.500,288.160 325.800 M112.542 334.600 C 112.541 336.580,112.608 337.440,112.692 336.512 C 112.776 335.584,112.777 333.964,112.695 332.912 C 112.612 331.860,112.543 332.620,112.542 334.600 M140.928 335.600 C 140.928 337.030,141.001 337.615,141.089 336.900 C 141.178 336.185,141.178 335.015,141.089 334.300 C 141.001 333.585,140.928 334.170,140.928 335.600 M260.928 335.600 C 260.928 337.030,261.001 337.615,261.089 336.900 C 261.178 336.185,261.178 335.015,261.089 334.300 C 261.001 333.585,260.928 334.170,260.928 335.600 M135.600 338.181 C 135.600 339.058,135.462 339.143,134.300 338.984 C 131.482 338.597,115.372 338.745,114.274 339.167 C 112.842 339.718,112.892 339.726,112.676 338.900 C 112.563 338.469,112.475 338.623,112.446 339.300 L 112.400 340.400 124.200 340.400 L 136.000 340.400 136.000 338.800 C 136.000 337.920,135.910 337.200,135.800 337.200 C 135.690 337.200,135.600 337.641,135.600 338.181 M140.846 339.300 L 140.800 340.400 201.000 340.400 L 261.200 340.400 261.154 339.300 C 261.123 338.570,261.044 338.445,260.919 338.929 C 260.793 339.417,260.510 339.574,260.066 339.404 C 257.850 338.554,254.935 338.311,249.800 338.550 C 242.637 338.884,161.494 338.892,154.600 338.559 C 149.939 338.335,145.274 338.664,142.204 339.435 C 141.514 339.608,141.223 339.478,141.082 338.934 C 140.955 338.441,140.878 338.561,140.846 339.300 M107.744 344.306 C 107.728 344.688,107.588 345.360,107.432 345.800 C 107.277 346.240,107.447 346.085,107.810 345.456 C 108.189 344.802,108.322 344.162,108.122 343.962 C 107.921 343.761,107.759 343.909,107.744 344.306 M136.160 343.892 C 136.312 344.162,136.234 344.763,135.986 345.226 C 135.738 345.689,135.609 346.143,135.700 346.234 C 135.791 346.324,136.108 345.945,136.405 345.391 C 136.852 344.555,136.854 344.300,136.413 343.892 C 135.994 343.503,135.941 343.503,136.160 343.892 M264.267 343.867 C 263.549 344.585,263.980 552.818,264.700 553.086 C 265.085 553.230,265.635 553.674,265.923 554.074 C 266.750 555.223,289.200 555.194,289.200 554.043 C 289.200 552.854,288.633 552.800,276.167 552.800 L 264.400 552.800 264.400 448.433 C 264.400 365.314,264.502 344.026,264.900 343.865 C 265.179 343.752,265.209 343.649,264.967 343.632 C 264.728 343.614,264.413 343.720,264.267 343.867 M112.587 406.600 C 112.587 418.920,112.638 424.018,112.700 417.928 C 112.762 411.839,112.762 401.759,112.700 395.528 C 112.638 389.298,112.587 394.280,112.587 406.600 M358.586 529.400 C 358.586 541.060,358.637 545.772,358.700 539.872 C 358.762 533.971,358.762 524.431,358.700 518.672 C 358.637 512.912,358.586 517.740,358.586 529.400 M356.163 542.800 C 356.163 546.430,356.223 547.915,356.298 546.100 C 356.372 544.285,356.372 541.315,356.298 539.500 C 356.223 537.685,356.163 539.170,356.163 542.800 M19.411 553.401 C 18.978 553.740,18.348 553.923,18.011 553.808 C 17.639 553.680,17.704 553.833,18.176 554.199 C 19.474 555.203,40.323 555.078,42.004 554.056 L 43.227 553.312 41.513 553.110 C 36.878 552.564,20.202 552.783,19.411 553.401 M48.002 553.397 C 47.394 554.130,46.539 554.180,46.265 553.500 C 46.113 553.123,46.055 553.120,46.032 553.486 C 45.950 554.736,47.722 554.805,77.478 554.703 C 107.099 554.601,107.400 554.592,107.400 553.800 C 107.400 552.709,48.902 552.313,48.002 553.397 M358.509 555.600 C 358.509 556.590,358.587 556.995,358.682 556.500 C 358.778 556.005,358.778 555.195,358.682 554.700 C 358.587 554.205,358.509 554.610,358.509 555.600 M45.758 558.166 C 45.638 558.478,45.605 559.243,45.684 559.866 C 45.802 560.791,45.864 560.687,46.025 559.300 C 46.227 557.551,46.138 557.175,45.758 558.166 M292.800 562.000 C 292.800 565.318,292.904 566.000,293.410 566.000 C 293.745 566.000,294.192 566.452,294.402 567.005 L 294.784 568.010 339.172 567.905 C 372.921 567.825,383.675 567.686,384.038 567.322 C 384.408 566.952,384.338 566.891,383.730 567.050 C 383.285 567.167,382.717 566.982,382.420 566.624 C 381.949 566.056,377.533 565.994,338.313 566.004 L 294.729 566.014 294.599 562.707 C 294.427 558.329,294.351 558.000,293.514 558.000 C 292.876 558.000,292.800 558.427,292.800 562.000 M43.357 563.600 C 43.357 566.570,43.420 567.785,43.497 566.300 C 43.574 564.815,43.574 562.385,43.497 560.900 C 43.420 559.415,43.357 560.630,43.357 563.600 M48.400 566.368 C 48.400 567.026,46.730 567.332,46.356 566.743 C 46.117 566.365,46.010 566.347,46.006 566.686 C 45.990 567.948,47.809 568.000,91.586 568.000 C 137.521 568.000,137.339 568.006,135.816 566.483 C 135.374 566.040,48.400 565.926,48.400 566.368 M45.913 571.495 C 47.076 571.576,48.876 571.576,49.913 571.493 C 50.951 571.411,50.000 571.345,47.800 571.346 C 45.600 571.347,44.751 571.414,45.913 571.495 M101.300 571.497 C 103.005 571.572,105.795 571.572,107.500 571.497 C 109.205 571.422,107.810 571.361,104.400 571.361 C 100.990 571.361,99.595 571.422,101.300 571.497 M125.500 571.499 C 127.975 571.569,132.025 571.569,134.500 571.499 C 136.975 571.428,134.950 571.371,130.000 571.371 C 125.050 571.371,123.025 571.428,125.500 571.499 M293.715 571.496 C 294.988 571.576,296.968 571.575,298.115 571.494 C 299.262 571.414,298.220 571.349,295.800 571.350 C 293.380 571.351,292.442 571.416,293.715 571.496 " stroke="none" fill="#3c3c3c" fill-rule="evenodd"></path><path id="path4" d="M15.700 17.530 C 15.300 17.784,15.220 72.106,15.300 287.824 L 15.400 557.800 29.200 557.800 C 37.928 557.800,43.113 557.947,43.308 558.200 C 43.477 558.420,43.581 561.344,43.540 564.699 C 43.498 568.053,43.600 570.933,43.766 571.099 C 44.112 571.444,140.284 571.518,140.843 571.173 C 141.064 571.037,141.168 525.913,141.105 457.273 L 141.000 343.600 201.000 343.600 L 261.000 343.600 260.893 450.900 L 260.787 558.200 275.030 558.200 L 289.274 558.200 289.221 564.837 L 289.167 571.474 337.484 571.560 C 376.814 571.631,385.912 571.550,386.400 571.123 C 386.933 570.659,386.978 540.267,386.800 300.600 L 386.600 30.600 373.225 30.495 C 356.867 30.365,358.459 31.139,358.310 23.247 L 358.200 17.400 309.708 17.298 L 261.216 17.197 260.990 18.099 C 260.750 19.055,261.013 216.552,261.257 218.600 L 261.400 219.800 201.000 219.800 L 140.600 219.800 140.743 218.400 C 140.985 216.038,141.244 32.261,141.007 31.300 L 140.785 30.400 126.616 30.400 C 118.823 30.400,112.367 30.265,112.268 30.100 C 112.170 29.935,112.280 27.460,112.513 24.600 C 112.746 21.740,112.813 18.905,112.661 18.300 L 112.385 17.200 64.292 17.206 C 37.842 17.209,15.975 17.355,15.700 17.530 M65.713 19.197 C 111.678 19.200,109.410 19.090,108.063 21.248 C 107.446 22.235,107.470 27.003,108.097 28.007 C 109.514 30.275,110.693 30.190,76.194 30.302 C 53.718 30.375,44.522 30.533,44.138 30.851 C 43.688 31.225,43.599 74.091,43.594 291.949 C 43.591 435.307,43.456 552.784,43.294 553.009 C 42.091 554.684,41.221 554.800,29.891 554.800 C 21.076 554.800,18.802 554.690,18.176 554.232 C 17.204 553.521,16.718 20.463,17.689 19.293 C 18.073 18.830,18.751 18.755,20.790 18.948 C 22.226 19.083,42.441 19.196,65.713 19.197 M356.316 24.000 C 356.380 26.530,356.332 29.004,356.209 29.498 L 355.986 30.395 322.693 30.498 L 289.400 30.600 289.293 123.600 C 289.216 191.418,289.308 216.829,289.633 217.447 C 290.872 219.801,290.923 219.790,277.762 219.906 C 265.950 220.010,265.721 219.996,264.967 219.164 C 263.907 217.992,263.741 20.262,264.800 19.591 C 265.172 19.355,282.619 19.246,310.800 19.305 L 356.200 19.400 356.316 24.000 M107.900 32.593 C 108.589 32.844,108.528 34.215,107.795 34.948 C 106.882 35.861,107.082 216.120,107.997 217.501 C 109.442 219.683,108.900 219.789,95.790 219.906 C 87.355 219.981,83.701 220.150,83.298 220.484 C 82.687 220.992,82.755 243.235,83.374 245.039 C 83.607 245.718,83.436 245.971,82.478 246.368 L 81.296 246.857 81.002 255.091 C 80.840 259.619,80.842 281.386,81.005 303.462 L 81.303 343.600 94.628 343.600 C 108.789 343.600,108.831 343.606,107.813 345.574 C 107.259 346.646,107.195 357.647,107.203 450.686 L 107.212 554.600 77.286 554.703 C 51.894 554.789,47.242 554.719,46.580 554.235 C 45.717 553.604,45.104 33.680,45.965 32.642 C 46.325 32.208,106.712 32.160,107.900 32.593 M136.728 33.501 C 136.798 33.996,136.570 34.688,136.220 35.037 C 135.364 35.893,135.444 216.815,136.300 217.100 C 137.221 217.407,136.902 219.560,135.900 219.805 C 135.405 219.925,129.870 219.974,123.600 219.912 L 112.200 219.800 112.261 218.400 C 112.532 212.134,112.681 41.148,112.418 37.600 C 112.230 35.070,112.162 32.862,112.266 32.694 C 112.369 32.526,117.887 32.436,124.527 32.494 L 136.600 32.600 136.728 33.501 M356.253 32.885 C 356.577 33.411,356.477 552.533,356.153 553.379 C 355.631 554.738,354.249 554.800,324.371 554.800 L 294.780 554.800 294.400 553.800 C 294.191 553.250,293.745 552.800,293.409 552.800 C 292.730 552.800,292.645 33.948,293.324 32.900 C 293.789 32.181,355.809 32.167,356.253 32.885 M384.600 299.680 C 384.600 518.273,384.506 566.854,384.080 567.280 C 383.661 567.699,374.950 567.820,339.172 567.905 L 294.784 568.010 294.402 567.005 C 294.192 566.452,293.745 566.000,293.410 566.000 C 292.904 566.000,292.800 565.318,292.800 562.002 L 292.800 558.005 325.500 557.902 L 358.200 557.800 358.300 295.641 C 358.375 101.044,358.517 33.340,358.854 32.935 C 359.223 32.490,361.657 32.409,371.954 32.494 L 384.600 32.600 384.600 299.680 M107.860 222.168 C 108.579 222.443,108.525 224.004,107.762 225.000 C 106.930 226.087,107.028 243.085,107.871 243.928 C 108.576 244.633,108.544 245.859,107.813 246.140 C 106.853 246.508,87.543 246.507,87.228 246.139 C 85.630 244.266,85.449 223.736,87.020 222.464 C 87.825 221.813,106.253 221.551,107.860 222.168 M136.258 222.167 C 137.005 222.454,136.942 224.260,136.175 224.554 C 135.275 224.900,135.372 242.634,136.279 243.667 C 136.601 244.034,136.805 244.754,136.732 245.267 L 136.600 246.200 124.400 246.200 L 112.200 246.200 112.263 245.000 C 112.734 236.017,112.817 227.395,112.453 225.228 C 112.200 223.720,112.168 222.479,112.376 222.228 C 112.738 221.792,135.132 221.735,136.258 222.167 M261.235 222.287 C 261.400 222.459,261.364 224.876,261.155 227.659 C 260.920 230.796,260.915 235.202,261.143 239.259 C 261.345 242.856,261.386 245.936,261.234 246.101 C 261.082 246.267,233.877 246.357,200.779 246.301 L 140.600 246.200 140.682 245.000 C 141.135 238.388,141.235 227.759,140.867 225.423 C 140.614 223.817,140.577 222.468,140.781 222.223 C 141.198 221.721,260.752 221.784,261.235 222.287 M287.868 222.135 C 288.344 222.611,288.315 245.573,287.837 245.968 C 287.317 246.400,266.500 246.637,265.528 246.222 C 264.247 245.676,264.000 243.669,264.005 233.840 C 264.011 223.373,264.087 222.662,265.244 222.146 C 266.131 221.750,287.473 221.740,287.868 222.135 M107.900 248.597 C 108.606 248.848,108.522 250.601,107.775 251.221 C 107.216 251.685,107.163 255.033,107.275 282.870 L 107.400 314.000 97.500 314.000 C 89.140 314.000,87.600 313.910,87.600 313.423 C 87.600 313.105,87.235 312.589,86.788 312.277 C 85.505 311.378,85.730 249.910,87.020 248.865 C 87.801 248.231,106.214 247.995,107.900 248.597 M286.076 248.914 C 286.244 249.181,286.372 263.664,286.362 281.098 L 286.342 312.795 285.482 313.398 C 283.959 314.464,266.451 314.270,265.054 313.171 L 264.000 312.342 264.000 281.597 C 264.000 250.169,264.053 249.051,265.568 248.489 C 266.950 247.976,285.731 248.366,286.076 248.914 M136.732 249.533 C 136.805 250.046,136.568 250.794,136.206 251.194 C 135.604 251.859,135.558 254.593,135.673 282.961 L 135.800 314.000 124.200 314.000 L 112.600 314.000 112.742 284.203 C 112.842 263.109,112.750 253.641,112.427 251.788 C 111.793 248.146,110.952 248.375,124.527 248.494 L 136.600 248.600 136.732 249.533 M261.200 251.400 C 261.090 252.940,261.011 267.655,261.023 284.100 L 261.047 314.000 201.023 314.000 L 141.000 314.000 141.140 284.194 C 141.239 263.158,141.146 253.620,140.826 251.779 C 140.576 250.344,140.479 248.996,140.610 248.784 C 140.762 248.537,162.687 248.434,201.124 248.499 L 261.400 248.600 261.200 251.400 M285.920 316.880 C 286.755 317.715,286.587 338.730,285.738 339.669 C 284.627 340.897,266.871 340.772,265.184 339.525 L 264.000 338.650 264.000 328.145 C 264.000 318.703,264.068 317.601,264.675 317.262 C 265.073 317.039,268.974 316.966,274.175 317.084 C 279.845 317.212,283.358 317.135,284.000 316.867 C 285.314 316.320,285.360 316.320,285.920 316.880 M289.920 316.880 C 290.689 317.649,290.585 340.849,289.800 343.865 C 289.274 345.884,289.200 359.049,289.200 450.484 L 289.200 554.800 277.823 554.800 C 267.289 554.800,266.407 554.746,265.923 554.074 C 265.635 553.674,265.085 553.230,264.699 553.086 C 264.034 552.838,264.004 547.577,264.099 448.312 L 264.200 343.800 275.780 343.694 C 284.433 343.614,287.440 343.463,287.674 343.094 C 287.847 342.822,287.991 336.921,287.994 329.980 C 288.000 317.772,288.122 316.400,289.200 316.400 C 289.332 316.400,289.656 316.616,289.920 316.880 M108.350 317.416 C 108.468 317.535,108.233 318.248,107.827 319.002 C 107.150 320.259,107.105 321.196,107.282 330.386 L 107.475 340.400 96.764 340.400 C 86.578 340.400,86.042 340.363,85.812 339.637 C 85.679 339.217,85.306 338.773,84.985 338.650 C 84.035 338.285,84.118 317.313,85.070 317.129 C 86.185 316.914,108.118 317.185,108.350 317.416 M136.300 317.197 C 137.020 317.201,136.916 318.606,136.149 319.243 C 135.568 319.724,135.517 320.912,135.681 330.092 L 135.865 340.400 124.076 340.400 L 112.287 340.400 112.543 332.300 C 112.683 327.845,112.657 322.713,112.484 320.895 C 112.311 319.077,112.302 317.457,112.465 317.295 C 112.627 317.133,117.943 317.044,124.280 317.097 C 130.616 317.151,136.025 317.196,136.300 317.197 M261.217 317.290 C 261.337 317.449,261.282 319.159,261.096 321.090 C 260.910 323.020,260.873 328.155,261.014 332.500 L 261.270 340.400 201.086 340.400 L 140.902 340.400 141.038 328.700 C 141.112 322.265,141.179 317.000,141.187 317.000 C 141.194 317.000,168.155 317.000,201.100 317.000 C 234.045 317.000,261.098 317.130,261.217 317.290 M86.148 328.800 C 86.148 331.110,86.214 332.055,86.295 330.900 C 86.376 329.745,86.376 327.855,86.295 326.700 C 86.214 325.545,86.148 326.490,86.148 328.800 M136.648 344.181 C 136.771 344.501,136.583 345.174,136.231 345.677 C 135.647 346.511,135.592 356.407,135.605 457.196 L 135.619 567.800 91.489 567.902 C 55.190 567.985,47.228 567.909,46.627 567.469 C 46.001 567.011,45.890 566.297,45.848 562.446 L 45.800 557.957 78.956 557.989 C 97.192 558.007,112.271 558.121,112.466 558.241 C 112.672 558.368,112.773 513.395,112.707 451.030 L 112.593 343.600 124.509 343.600 C 134.563 343.600,136.460 343.691,136.648 344.181 " stroke="none" fill="#2c2c2c" fill-rule="evenodd"></path></g></svg>